<?xml version="1.0" encoding="UTF-8"?>
<svg width="273px" height="84px" viewBox="0 0 273 84" version="1.1" xmlns="http://www.w3.org/2000/svg" xmlns:xlink="http://www.w3.org/1999/xlink">
    <title>logo</title>
    <g id="页面-1" stroke="none" stroke-width="1" fill="none" fill-rule="evenodd">
        <g id="icon" transform="translate(0, -155)"></g>
        <g id="logo">
            <g id="编组">
                <circle id="椭圆形-2" fill="#F0F0F0" cx="43.1082075" cy="43.1829041" r="40"></circle>
                <circle id="椭圆形" fill="#F0F0F0" cx="42" cy="42" r="42"></circle>
                <path d="M79.4813072,56.0007013 C73.806174,71.1870044 59.1658422,82 42,82 C24.8341578,82 10.193826,71.1870044 4.51869283,56.0007013 Z" id="形状结合" fill="#FFB003"></path>
                <path d="M42,2 C59.1660656,2 73.806555,12.813277 79.4815287,27.9998915 L4.51847131,27.9998915 C10.193445,12.813277 24.8339344,2 42,2 Z" id="形状结合" fill="#1C1C1E"></path>
            </g>
            <g id="LINUX-DO" transform="translate(95.54, 28.984)" fill="#000000" fill-rule="nonzero">
                <polygon id="路径" points="-2.77936054e-14 0.509433962 -2.77936054e-14 26.490566 18.9171812 26.490566 18.9171812 22.851752 4.37130083 22.851752 4.37130083 0.509433962"></polygon>
                <polygon id="路径" points="22.3087077 0.509433962 22.3087077 26.490566 26.7176921 26.490566 26.7176921 0.509433962"></polygon>
                <polygon id="路径" points="31.9934 0.509433962 31.9934 26.490566 36.4023845 26.490566 36.4023845 7.49595687 36.553119 7.49595687 50.0061742 26.490566 54.3021077 26.490566 54.3021077 0.509433962 49.8554396 0.509433962 49.8554396 19.2493261 49.7047051 19.2493261 36.4023845 0.509433962"></polygon>
                <path d="M59.5778156,0.509433962 L59.5778156,16.6293801 C59.5778156,20.0134771 60.55759,22.597035 62.5548222,24.416442 C64.4390036,26.1266846 67.1899085,27 70.7698531,27 C74.3121141,27 77.0630189,26.1266846 79.0225676,24.3800539 C80.9821162,22.597035 81.9618906,20.0134771 81.9618906,16.6293801 L81.9618906,0.509433962 L77.5529061,0.509433962 L77.5529061,16.7021563 C77.5529061,18.958221 76.9876517,20.5956873 75.9325101,21.6873315 C74.8396849,22.7425876 73.106238,23.2884097 70.7698531,23.2884097 C68.3957845,23.2884097 66.6623377,22.7425876 65.6071961,21.6873315 C64.5143709,20.5956873 63.9868001,18.958221 63.9868001,16.7021563 L63.9868001,0.509433962 L59.5778156,0.509433962 Z" id="路径"></path>
                <polygon id="路径" points="85.3911007 0.509433962 94.3974878 13.0633423 84.7881627 26.490566 90.1769214 26.490566 97.110709 16.4474394 104.044496 26.490566 109.433255 26.490566 99.7485629 13.0633423 108.830317 0.509433962 103.441558 0.509433962 97.110709 9.67924528 90.7798595 0.509433962"></polygon>
                <path d="M124.808175,0.509433962 L124.808175,26.490566 L134.643602,26.490566 C139.014903,26.490566 142.293379,25.3261456 144.554396,22.9973046 C146.702363,20.777628 147.795188,17.6118598 147.795188,13.5 C147.795188,9.35175202 146.702363,6.18598383 144.554396,4.00269542 C142.293379,1.67385445 139.014903,0.509433962 134.643602,0.509433962 L124.808175,0.509433962 Z M129.21716,4.14824798 L133.814562,4.14824798 C137.168405,4.14824798 139.617841,4.87601078 141.16287,6.36792453 C142.670215,7.82345013 143.423888,10.2250674 143.423888,13.5 C143.423888,16.7021563 142.670215,19.0673854 141.16287,20.5956873 C139.617841,22.0876011 137.168405,22.851752 133.814562,22.851752 L129.21716,22.851752 L129.21716,4.14824798 Z" id="形状"></path>
                <path d="M163.886098,0 C159.740898,0 156.500106,1.27358491 154.163722,3.893531 C151.902704,6.36792453 150.809879,9.57008086 150.809879,13.5363881 C150.809879,17.4663073 151.902704,20.6684636 154.163722,23.1428571 C156.500106,25.690027 159.740898,27 163.886098,27 C167.993613,27 171.234405,25.7264151 173.608473,23.1792453 C175.869491,20.7412399 177,17.5390836 177,13.5363881 C177,9.53369272 175.869491,6.29514825 173.608473,3.85714286 C171.234405,1.27358491 167.993613,0 163.886098,0 Z M163.886098,3.74797844 C166.674686,3.74797844 168.822653,4.58490566 170.329998,6.33153639 C171.799659,8.07816712 172.553332,10.4797844 172.553332,13.5363881 C172.553332,16.5929919 171.799659,18.958221 170.329998,20.6684636 C168.822653,22.3787062 166.674686,23.2520216 163.886098,23.2520216 C161.097509,23.2520216 158.911859,22.3423181 157.404514,20.5592992 C155.934852,18.8126685 155.218863,16.4838275 155.218863,13.5363881 C155.218863,10.5525606 155.934852,8.22371968 157.404514,6.47708895 C158.949542,4.65768194 161.097509,3.74797844 163.886098,3.74797844 Z" id="形状"></path>
            </g>
        </g>
    </g>
</svg>