<?xml version="1.0" encoding="UTF-8"?>
<svg width="309px" height="95px" viewBox="0 0 309 95" version="1.1" xmlns="http://www.w3.org/2000/svg" xmlns:xlink="http://www.w3.org/1999/xlink">
    <title>seal-pioneer project</title>
    <g id="页面-1" stroke="none" stroke-width="1" fill="none" fill-rule="evenodd">
        <g id="seal-pioneer-project" transform="translate(1, 1)">
            <path d="M301.7669,0.644431647 L302.490023,1.04959089 C304.134807,2.05844786 305.474732,3.50436052 306.355569,5.23309975 C307.361859,7.20805653 307.5,8.89881904 307.5,16 L307.5,77 C307.5,84.101181 307.361859,85.7919435 306.355569,87.7669002 C305.348898,89.7426022 303.742602,91.3488981 301.7669,92.3555685 C299.791943,93.3618592 298.101181,93.5 291,93.5 L16,93.5 C8.89881904,93.5 7.20805653,93.3618592 5.23309975,92.3555685 C3.25739778,91.3488981 1.65110193,89.7426022 0.644431496,87.7669002 C-0.361859244,85.7919435 -0.5,84.101181 -0.5,77 L-0.5,16 C-0.5,8.89881904 -0.361859244,7.20805653 0.644431496,5.23309975 C1.65110193,3.25739778 3.25739778,1.65110193 5.23309975,0.644431496 C7.20805653,-0.361859244 8.89881904,-0.5 16,-0.5 L291,-0.5 C298.101181,-0.5 299.791943,-0.361859244 301.7669,0.644431647 Z" id="矩形" stroke="#000000" fill="#000000"></path>
            <g id="编组" transform="translate(4, 5)">
                <circle id="椭圆形-2" fill="#F0F0F0" cx="43.1082075" cy="43.1829041" r="40"></circle>
                <circle id="椭圆形" fill="#F0F0F0" cx="42" cy="42" r="42"></circle>
                <path d="M79.4813072,56.0007013 C73.806174,71.1870044 59.1658422,82 42,82 C24.8341578,82 10.193826,71.1870044 4.51869283,56.0007013 Z" id="形状结合" fill="#FFB003"></path>
                <path d="M42,2 C59.1660656,2 73.806555,12.813277 79.4815287,27.9998915 L4.51847131,27.9998915 C10.193445,12.813277 24.8339344,2 42,2 Z" id="形状结合" fill="#1C1C1E"></path>
            </g>
            <g id="LINUX-DO" transform="translate(99.1, 13.16)" fill="#FFFFFF" fill-rule="nonzero">
                <polygon id="路径" points="0 0.603773585 0 31.3962264 21.375346 31.3962264 21.375346 27.083558 4.93932297 27.083558 4.93932297 0.603773585"></polygon>
                <polygon id="路径" points="25.2075793 0.603773585 25.2075793 31.3962264 30.1894826 31.3962264 30.1894826 0.603773585"></polygon>
                <polygon id="路径" points="36.1507345 0.603773585 36.1507345 31.3962264 41.1326379 31.3962264 41.1326379 8.88409704 41.3029593 8.88409704 56.5041516 31.3962264 61.3583138 31.3962264 61.3583138 0.603773585 56.3338301 0.603773585 56.3338301 22.8140162 56.1635086 22.8140162 41.1326379 0.603773585"></polygon>
                <path d="M67.3195657,0.603773585 L67.3195657,19.7088949 C67.3195657,23.7196765 68.4266553,26.7816712 70.6834149,28.9380054 C72.8124335,30.9649596 75.9208005,32 79.9659357,32 C83.9684905,32 87.0768576,30.9649596 89.2910368,28.8948787 C91.5052161,26.7816712 92.6123057,23.7196765 92.6123057,19.7088949 L92.6123057,0.603773585 L87.6304024,0.603773585 L87.6304024,19.7951482 C87.6304024,22.4690027 86.9916968,24.4097035 85.7994465,25.703504 C84.5646157,26.9541779 82.6059187,27.6010782 79.9659357,27.6010782 C77.2833724,27.6010782 75.3246753,26.9541779 74.132425,25.703504 C72.8975942,24.4097035 72.301469,22.4690027 72.301469,19.7951482 L72.301469,0.603773585 L67.3195657,0.603773585 Z" id="路径"></path>
                <polygon id="路径" points="96.4871194 0.603773585 106.663828 15.4824798 95.8058335 31.3962264 101.894826 31.3962264 109.729615 19.4932615 117.564403 31.3962264 123.653396 31.3962264 112.710241 15.4824798 122.97211 0.603773585 116.883117 0.603773585 109.729615 11.4716981 102.576112 0.603773585"></polygon>
                <path d="M141.026187,0.603773585 L141.026187,31.3962264 L152.139664,31.3962264 C157.078987,31.3962264 160.783479,30.0161725 163.338301,27.2560647 C165.765382,24.6253369 167.000213,20.8733154 167.000213,16 C167.000213,11.083558 165.765382,7.33153639 163.338301,4.74393531 C160.783479,1.98382749 157.078987,0.603773585 152.139664,0.603773585 L141.026187,0.603773585 Z M146.00809,4.91644205 L151.202895,4.91644205 C154.992548,4.91644205 157.760273,5.77897574 159.506068,7.54716981 C161.209283,9.2722372 162.06089,12.1185984 162.06089,16 C162.06089,19.7951482 161.209283,22.5983827 159.506068,24.4097035 C157.760273,26.1778976 154.992548,27.083558 151.202895,27.083558 L146.00809,27.083558 L146.00809,4.91644205 Z" id="形状"></path>
                <path d="M185.182031,0 C180.49819,0 176.836278,1.50943396 174.196296,4.61455526 C171.641473,7.54716981 170.406643,11.3423181 170.406643,16.0431267 C170.406643,20.7008086 171.641473,24.4959569 174.196296,27.4285714 C176.836278,30.4474394 180.49819,32 185.182031,32 C189.823291,32 193.485203,30.490566 196.167767,27.4716981 C198.722589,24.5822102 200,20.787062 200,16.0431267 C200,11.2991914 198.722589,7.46091644 196.167767,4.57142857 C193.485203,1.50943396 189.823291,0 185.182031,0 Z M185.182031,4.44204852 C188.332978,4.44204852 190.76006,5.43396226 192.463274,7.50404313 C194.123909,9.57412399 194.975516,12.4204852 194.975516,16.0431267 C194.975516,19.6657682 194.123909,22.4690027 192.463274,24.4959569 C190.76006,26.5229111 188.332978,27.5579515 185.182031,27.5579515 C182.031084,27.5579515 179.561422,26.4797844 177.858207,24.3665768 C176.197573,22.296496 175.388546,19.5363881 175.388546,16.0431267 C175.388546,12.5067385 176.197573,9.74663073 177.858207,7.67654987 C179.604003,5.52021563 182.031084,4.44204852 185.182031,4.44204852 Z" id="形状"></path>
            </g>
            <g id="PIONEER-PROJECT" transform="translate(99, 54)" fill="#F0F0F0" fill-rule="nonzero">
                <path d="M1.47,7.006 L1.47,22 L3.927,22 L3.927,16.246 L7.644,16.246 C11.298,16.246 13.125,14.692 13.125,11.605 C13.125,8.539 11.298,7.006 7.686,7.006 L1.47,7.006 Z M3.927,9.106 L7.497,9.106 C8.568,9.106 9.366,9.295 9.87,9.694 C10.374,10.072 10.647,10.702 10.647,11.605 C10.647,12.508 10.395,13.159 9.891,13.558 C9.387,13.936 8.589,14.146 7.497,14.146 L3.927,14.146 L3.927,9.106 Z" id="形状"></path>
                <polygon id="路径" points="15.225 7.006 15.225 22 17.682 22 17.682 7.006"></polygon>
                <path d="M27.279,6.712 C24.969,6.712 23.163,7.447 21.861,8.959 C20.601,10.387 19.992,12.235 19.992,14.524 C19.992,16.792 20.601,18.64 21.861,20.068 C23.163,21.538 24.969,22.294 27.279,22.294 C29.568,22.294 31.374,21.559 32.697,20.089 C33.957,18.682 34.587,16.834 34.587,14.524 C34.587,12.214 33.957,10.345 32.697,8.938 C31.374,7.447 29.568,6.712 27.279,6.712 Z M27.279,8.875 C28.833,8.875 30.03,9.358 30.87,10.366 C31.689,11.374 32.109,12.76 32.109,14.524 C32.109,16.288 31.689,17.653 30.87,18.64 C30.03,19.627 28.833,20.131 27.279,20.131 C25.725,20.131 24.507,19.606 23.667,18.577 C22.848,17.569 22.449,16.225 22.449,14.524 C22.449,12.802 22.848,11.458 23.667,10.45 C24.528,9.4 25.725,8.875 27.279,8.875 Z" id="形状"></path>
                <polygon id="路径" points="36.897 7.006 36.897 22 39.354 22 39.354 11.038 39.438 11.038 46.935 22 49.329 22 49.329 7.006 46.851 7.006 46.851 17.821 46.767 17.821 39.354 7.006"></polygon>
                <polygon id="路径" points="52.269 7.006 52.269 22 63.441 22 63.441 19.9 54.726 19.9 54.726 15.364 62.58 15.364 62.58 13.264 54.726 13.264 54.726 9.106 63.084 9.106 63.084 7.006"></polygon>
                <polygon id="路径" points="65.751 7.006 65.751 22 76.923 22 76.923 19.9 68.208 19.9 68.208 15.364 76.062 15.364 76.062 13.264 68.208 13.264 68.208 9.106 76.566 9.106 76.566 7.006"></polygon>
                <path d="M79.233,7.006 L79.233,22 L81.69,22 L81.69,15.889 L85.575,15.889 C86.415,15.889 87.066,16.057 87.507,16.435 C87.927,16.792 88.179,17.38 88.263,18.199 L88.452,20.047 C88.536,20.887 88.746,21.538 89.103,22 L91.77,22 C91.266,21.454 90.951,20.719 90.867,19.795 L90.615,17.38 C90.447,15.91 89.712,15.049 88.41,14.755 L88.41,14.713 C89.208,14.503 89.859,14.062 90.321,13.39 C90.741,12.781 90.951,12.088 90.951,11.311 C90.951,9.883 90.468,8.791 89.544,8.035 C88.662,7.342 87.444,7.006 85.911,7.006 L79.233,7.006 Z M81.69,9.106 L85.575,9.106 C86.583,9.106 87.318,9.274 87.78,9.652 C88.242,10.009 88.473,10.597 88.473,11.416 C88.473,12.172 88.242,12.76 87.78,13.18 C87.276,13.579 86.541,13.789 85.575,13.789 L81.69,13.789 L81.69,9.106 Z" id="形状"></path>
                <path d="M100.863,7.006 L100.863,22 L103.32,22 L103.32,16.246 L107.037,16.246 C110.691,16.246 112.518,14.692 112.518,11.605 C112.518,8.539 110.691,7.006 107.079,7.006 L100.863,7.006 Z M103.32,9.106 L106.89,9.106 C107.961,9.106 108.759,9.295 109.263,9.694 C109.767,10.072 110.04,10.702 110.04,11.605 C110.04,12.508 109.788,13.159 109.284,13.558 C108.78,13.936 107.982,14.146 106.89,14.146 L103.32,14.146 L103.32,9.106 Z" id="形状"></path>
                <path d="M114.618,7.006 L114.618,22 L117.075,22 L117.075,15.889 L120.96,15.889 C121.8,15.889 122.451,16.057 122.892,16.435 C123.312,16.792 123.564,17.38 123.648,18.199 L123.837,20.047 C123.921,20.887 124.131,21.538 124.488,22 L127.155,22 C126.651,21.454 126.336,20.719 126.252,19.795 L126,17.38 C125.832,15.91 125.097,15.049 123.795,14.755 L123.795,14.713 C124.593,14.503 125.244,14.062 125.706,13.39 C126.126,12.781 126.336,12.088 126.336,11.311 C126.336,9.883 125.853,8.791 124.929,8.035 C124.047,7.342 122.829,7.006 121.296,7.006 L114.618,7.006 Z M117.075,9.106 L120.96,9.106 C121.968,9.106 122.703,9.274 123.165,9.652 C123.627,10.009 123.858,10.597 123.858,11.416 C123.858,12.172 123.627,12.76 123.165,13.18 C122.661,13.579 121.926,13.789 120.96,13.789 L117.075,13.789 L117.075,9.106 Z" id="形状"></path>
                <path d="M135.912,6.712 C133.602,6.712 131.796,7.447 130.494,8.959 C129.234,10.387 128.625,12.235 128.625,14.524 C128.625,16.792 129.234,18.64 130.494,20.068 C131.796,21.538 133.602,22.294 135.912,22.294 C138.201,22.294 140.007,21.559 141.33,20.089 C142.59,18.682 143.22,16.834 143.22,14.524 C143.22,12.214 142.59,10.345 141.33,8.938 C140.007,7.447 138.201,6.712 135.912,6.712 Z M135.912,8.875 C137.466,8.875 138.663,9.358 139.503,10.366 C140.322,11.374 140.742,12.76 140.742,14.524 C140.742,16.288 140.322,17.653 139.503,18.64 C138.663,19.627 137.466,20.131 135.912,20.131 C134.358,20.131 133.14,19.606 132.3,18.577 C131.481,17.569 131.082,16.225 131.082,14.524 C131.082,12.802 131.481,11.458 132.3,10.45 C133.161,9.4 134.358,8.875 135.912,8.875 Z" id="形状"></path>
                <path d="M151.431,7.006 L151.431,17.065 C151.431,18.136 151.242,18.913 150.864,19.396 C150.486,19.879 149.877,20.131 149.058,20.131 C147.567,20.131 146.832,19.27 146.832,17.548 L146.832,17.086 L144.375,17.086 L144.375,17.569 C144.375,19.039 144.774,20.194 145.572,21.034 C146.349,21.874 147.504,22.294 149.016,22.294 C150.759,22.294 152.019,21.853 152.817,20.971 C153.531,20.131 153.888,18.871 153.888,17.149 L153.888,7.006 L151.431,7.006 Z" id="路径"></path>
                <polygon id="路径" points="156.828 7.006 156.828 22 168 22 168 19.9 159.285 19.9 159.285 15.364 167.139 15.364 167.139 13.264 159.285 13.264 159.285 9.106 167.643 9.106 167.643 7.006"></polygon>
                <path d="M176.82,6.712 C174.426,6.712 172.599,7.489 171.339,9.085 C170.226,10.471 169.68,12.298 169.68,14.524 C169.68,16.792 170.205,18.598 171.276,19.942 C172.494,21.496 174.363,22.294 176.862,22.294 C178.479,22.294 179.865,21.832 181.02,20.908 C182.259,19.921 183.036,18.556 183.372,16.792 L180.978,16.792 C180.684,17.926 180.18,18.787 179.466,19.354 C178.794,19.858 177.912,20.131 176.841,20.131 C175.203,20.131 173.985,19.606 173.208,18.598 C172.494,17.653 172.137,16.288 172.137,14.524 C172.137,12.802 172.494,11.458 173.229,10.492 C174.027,9.4 175.203,8.875 176.778,8.875 C177.828,8.875 178.689,9.085 179.361,9.547 C180.054,10.009 180.516,10.723 180.768,11.71 L183.162,11.71 C182.931,10.198 182.28,8.98 181.188,8.098 C180.054,7.174 178.584,6.712 176.82,6.712 Z" id="路径"></path>
                <polygon id="路径" points="184.527 7.006 184.527 9.106 189.441 9.106 189.441 22 191.898 22 191.898 9.106 196.812 9.106 196.812 7.006"></polygon>
            </g>
        </g>
    </g>
</svg>