<?xml version="1.0" encoding="UTF-8"?>
<svg width="309px" height="95px" viewBox="0 0 309 95" version="1.1" xmlns="http://www.w3.org/2000/svg" xmlns:xlink="http://www.w3.org/1999/xlink">
    <title>seal-born in</title>
    <g id="页面-1" stroke="none" stroke-width="1" fill="none" fill-rule="evenodd">
        <g id="seal-born-in" transform="translate(1, 1)">
            <path d="M301.7669,0.644431647 L302.490023,1.04959089 C304.134807,2.05844786 305.474732,3.50436052 306.355569,5.23309975 C307.361859,7.20805653 307.5,8.89881904 307.5,16 L307.5,77 C307.5,84.101181 307.361859,85.7919435 306.355569,87.7669002 C305.348898,89.7426022 303.742602,91.3488981 301.7669,92.3555685 C299.791943,93.3618592 298.101181,93.5 291,93.5 L16,93.5 C8.89881904,93.5 7.20805653,93.3618592 5.23309975,92.3555685 C3.25739778,91.3488981 1.65110193,89.7426022 0.644431496,87.7669002 C-0.361859244,85.7919435 -0.5,84.101181 -0.5,77 L-0.5,16 C-0.5,8.89881904 -0.361859244,7.20805653 0.644431496,5.23309975 C1.65110193,3.25739778 3.25739778,1.65110193 5.23309975,0.644431496 C7.20805653,-0.361859244 8.89881904,-0.5 16,-0.5 L291,-0.5 C298.101181,-0.5 299.791943,-0.361859244 301.7669,0.644431647 Z" id="矩形" stroke="#000000" fill="#000000"></path>
            <g id="编组" transform="translate(4, 5)">
                <circle id="椭圆形-2" fill="#F0F0F0" cx="43.1082075" cy="43.1829041" r="40"></circle>
                <circle id="椭圆形" fill="#F0F0F0" cx="42" cy="42" r="42"></circle>
                <path d="M79.4813072,56.0007013 C73.806174,71.1870044 59.1658422,82 42,82 C24.8341578,82 10.193826,71.1870044 4.51869283,56.0007013 Z" id="形状结合" fill="#FFB003"></path>
                <path d="M42,2 C59.1660656,2 73.806555,12.813277 79.4815287,27.9998915 L4.51847131,27.9998915 C10.193445,12.813277 24.8339344,2 42,2 Z" id="形状结合" fill="#1C1C1E"></path>
            </g>
            <g id="LINUX-DO" transform="translate(99.1, 44.16)" fill="#FFFFFF" fill-rule="nonzero">
                <polygon id="路径" points="0 0.603773585 0 31.3962264 21.375346 31.3962264 21.375346 27.083558 4.93932297 27.083558 4.93932297 0.603773585"></polygon>
                <polygon id="路径" points="25.2075793 0.603773585 25.2075793 31.3962264 30.1894826 31.3962264 30.1894826 0.603773585"></polygon>
                <polygon id="路径" points="36.1507345 0.603773585 36.1507345 31.3962264 41.1326379 31.3962264 41.1326379 8.88409704 41.3029593 8.88409704 56.5041516 31.3962264 61.3583138 31.3962264 61.3583138 0.603773585 56.3338301 0.603773585 56.3338301 22.8140162 56.1635086 22.8140162 41.1326379 0.603773585"></polygon>
                <path d="M67.3195657,0.603773585 L67.3195657,19.7088949 C67.3195657,23.7196765 68.4266553,26.7816712 70.6834149,28.9380054 C72.8124335,30.9649596 75.9208005,32 79.9659357,32 C83.9684905,32 87.0768576,30.9649596 89.2910368,28.8948787 C91.5052161,26.7816712 92.6123057,23.7196765 92.6123057,19.7088949 L92.6123057,0.603773585 L87.6304024,0.603773585 L87.6304024,19.7951482 C87.6304024,22.4690027 86.9916968,24.4097035 85.7994465,25.703504 C84.5646157,26.9541779 82.6059187,27.6010782 79.9659357,27.6010782 C77.2833724,27.6010782 75.3246753,26.9541779 74.132425,25.703504 C72.8975942,24.4097035 72.301469,22.4690027 72.301469,19.7951482 L72.301469,0.603773585 L67.3195657,0.603773585 Z" id="路径"></path>
                <polygon id="路径" points="96.4871194 0.603773585 106.663828 15.4824798 95.8058335 31.3962264 101.894826 31.3962264 109.729615 19.4932615 117.564403 31.3962264 123.653396 31.3962264 112.710241 15.4824798 122.97211 0.603773585 116.883117 0.603773585 109.729615 11.4716981 102.576112 0.603773585"></polygon>
                <path d="M141.026187,0.603773585 L141.026187,31.3962264 L152.139664,31.3962264 C157.078987,31.3962264 160.783479,30.0161725 163.338301,27.2560647 C165.765382,24.6253369 167.000213,20.8733154 167.000213,16 C167.000213,11.083558 165.765382,7.33153639 163.338301,4.74393531 C160.783479,1.98382749 157.078987,0.603773585 152.139664,0.603773585 L141.026187,0.603773585 Z M146.00809,4.91644205 L151.202895,4.91644205 C154.992548,4.91644205 157.760273,5.77897574 159.506068,7.54716981 C161.209283,9.2722372 162.06089,12.1185984 162.06089,16 C162.06089,19.7951482 161.209283,22.5983827 159.506068,24.4097035 C157.760273,26.1778976 154.992548,27.083558 151.202895,27.083558 L146.00809,27.083558 L146.00809,4.91644205 Z" id="形状"></path>
                <path d="M185.182031,0 C180.49819,0 176.836278,1.50943396 174.196296,4.61455526 C171.641473,7.54716981 170.406643,11.3423181 170.406643,16.0431267 C170.406643,20.7008086 171.641473,24.4959569 174.196296,27.4285714 C176.836278,30.4474394 180.49819,32 185.182031,32 C189.823291,32 193.485203,30.490566 196.167767,27.4716981 C198.722589,24.5822102 200,20.787062 200,16.0431267 C200,11.2991914 198.722589,7.46091644 196.167767,4.57142857 C193.485203,1.50943396 189.823291,0 185.182031,0 Z M185.182031,4.44204852 C188.332978,4.44204852 190.76006,5.43396226 192.463274,7.50404313 C194.123909,9.57412399 194.975516,12.4204852 194.975516,16.0431267 C194.975516,19.6657682 194.123909,22.4690027 192.463274,24.4959569 C190.76006,26.5229111 188.332978,27.5579515 185.182031,27.5579515 C182.031084,27.5579515 179.561422,26.4797844 177.858207,24.3665768 C176.197573,22.296496 175.388546,19.5363881 175.388546,16.0431267 C175.388546,12.5067385 176.197573,9.74663073 177.858207,7.67654987 C179.604003,5.52021563 182.031084,4.44204852 185.182031,4.44204852 Z" id="形状"></path>
            </g>
            <g id="BORN-IN" transform="translate(180, 0)" fill="#F0F0F0" fill-rule="nonzero">
                <path d="M1.96,10.008 L1.96,30 L11.144,30 C13.272,30 14.952,29.608 16.128,28.824 C17.5,27.872 18.2,26.388 18.2,24.372 C18.2,23.028 17.864,21.936 17.22,21.152 C16.548,20.34 15.568,19.808 14.252,19.556 C15.26,19.164 16.016,18.632 16.548,17.904 C17.08,17.12 17.36,16.168 17.36,15.048 C17.36,13.536 16.828,12.332 15.792,11.436 C14.672,10.484 13.104,10.008 11.116,10.008 L1.96,10.008 Z M5.236,12.696 L10.304,12.696 C11.648,12.696 12.6,12.92 13.216,13.368 C13.776,13.788 14.084,14.488 14.084,15.44 C14.084,16.476 13.776,17.232 13.216,17.708 C12.628,18.156 11.648,18.408 10.248,18.408 L5.236,18.408 L5.236,12.696 Z M5.236,21.096 L10.752,21.096 C12.208,21.096 13.272,21.348 13.944,21.852 C14.588,22.356 14.924,23.168 14.924,24.316 C14.924,25.436 14.476,26.22 13.58,26.724 C12.88,27.116 11.9,27.312 10.668,27.312 L5.236,27.312 L5.236,21.096 Z" id="形状"></path>
                <path d="M30.156,9.616 C27.076,9.616 24.668,10.596 22.932,12.612 C21.252,14.516 20.44,16.98 20.44,20.032 C20.44,23.056 21.252,25.52 22.932,27.424 C24.668,29.384 27.076,30.392 30.156,30.392 C33.208,30.392 35.616,29.412 37.38,27.452 C39.06,25.576 39.9,23.112 39.9,20.032 C39.9,16.952 39.06,14.46 37.38,12.584 C35.616,10.596 33.208,9.616 30.156,9.616 Z M30.156,12.5 C32.228,12.5 33.824,13.144 34.944,14.488 C36.036,15.832 36.596,17.68 36.596,20.032 C36.596,22.384 36.036,24.204 34.944,25.52 C33.824,26.836 32.228,27.508 30.156,27.508 C28.084,27.508 26.46,26.808 25.34,25.436 C24.248,24.092 23.716,22.3 23.716,20.032 C23.716,17.736 24.248,15.944 25.34,14.6 C26.488,13.2 28.084,12.5 30.156,12.5 Z" id="形状"></path>
                <path d="M42.98,10.008 L42.98,30 L46.256,30 L46.256,21.852 L51.436,21.852 C52.556,21.852 53.424,22.076 54.012,22.58 C54.572,23.056 54.908,23.84 55.02,24.932 L55.272,27.396 C55.384,28.516 55.664,29.384 56.14,30 L59.696,30 C59.024,29.272 58.604,28.292 58.492,27.06 L58.156,23.84 C57.932,21.88 56.952,20.732 55.216,20.34 L55.216,20.284 C56.28,20.004 57.148,19.416 57.764,18.52 C58.324,17.708 58.604,16.784 58.604,15.748 C58.604,13.844 57.96,12.388 56.728,11.38 C55.552,10.456 53.928,10.008 51.884,10.008 L42.98,10.008 Z M46.256,12.808 L51.436,12.808 C52.78,12.808 53.76,13.032 54.376,13.536 C54.992,14.012 55.3,14.796 55.3,15.888 C55.3,16.896 54.992,17.68 54.376,18.24 C53.704,18.772 52.724,19.052 51.436,19.052 L46.256,19.052 L46.256,12.808 Z" id="形状"></path>
                <polygon id="路径" points="62.496 10.008 62.496 30 65.772 30 65.772 15.384 65.884 15.384 75.88 30 79.072 30 79.072 10.008 75.768 10.008 75.768 24.428 75.656 24.428 65.772 10.008"></polygon>
                <polygon id="路径" points="92.316 10.008 92.316 30 95.592 30 95.592 10.008"></polygon>
                <polygon id="路径" points="99.512 10.008 99.512 30 102.788 30 102.788 15.384 102.9 15.384 112.896 30 116.088 30 116.088 10.008 112.784 10.008 112.784 24.428 112.672 24.428 102.788 10.008"></polygon>
            </g>
        </g>
    </g>
</svg>