<?xml version="1.0" encoding="UTF-8"?>
<svg width="309px" height="95px" viewBox="0 0 309 95" version="1.1" xmlns="http://www.w3.org/2000/svg" xmlns:xlink="http://www.w3.org/1999/xlink">
    <title>seal-powered by</title>
    <g id="页面-1" stroke="none" stroke-width="1" fill="none" fill-rule="evenodd">
        <g id="seal-powered-by" transform="translate(1, 1)">
            <path d="M301.7669,0.644431647 L302.490023,1.04959089 C304.134807,2.05844786 305.474732,3.50436052 306.355569,5.23309975 C307.361859,7.20805653 307.5,8.89881904 307.5,16 L307.5,77 C307.5,84.101181 307.361859,85.7919435 306.355569,87.7669002 C305.348898,89.7426022 303.742602,91.3488981 301.7669,92.3555685 C299.791943,93.3618592 298.101181,93.5 291,93.5 L16,93.5 C8.89881904,93.5 7.20805653,93.3618592 5.23309975,92.3555685 C3.25739778,91.3488981 1.65110193,89.7426022 0.644431496,87.7669002 C-0.361859244,85.7919435 -0.5,84.101181 -0.5,77 L-0.5,16 C-0.5,8.89881904 -0.361859244,7.20805653 0.644431496,5.23309975 C1.65110193,3.25739778 3.25739778,1.65110193 5.23309975,0.644431496 C7.20805653,-0.361859244 8.89881904,-0.5 16,-0.5 L291,-0.5 C298.101181,-0.5 299.791943,-0.361859244 301.7669,0.644431647 Z" id="矩形" stroke="#000000" fill="#000000"></path>
            <g id="编组" transform="translate(4, 5)">
                <circle id="椭圆形-2" fill="#F0F0F0" cx="43.1082075" cy="43.1829041" r="40"></circle>
                <circle id="椭圆形" fill="#F0F0F0" cx="42" cy="42" r="42"></circle>
                <path d="M79.4813072,56.0007013 C73.806174,71.1870044 59.1658422,82 42,82 C24.8341578,82 10.193826,71.1870044 4.51869283,56.0007013 Z" id="形状结合" fill="#FFB003"></path>
                <path d="M42,2 C59.1660656,2 73.806555,12.813277 79.4815287,27.9998915 L4.51847131,27.9998915 C10.193445,12.813277 24.8339344,2 42,2 Z" id="形状结合" fill="#1C1C1E"></path>
            </g>
            <g id="LINUX-DO" transform="translate(99.1, 44.16)" fill="#FFFFFF" fill-rule="nonzero">
                <polygon id="路径" points="0 0.603773585 0 31.3962264 21.375346 31.3962264 21.375346 27.083558 4.93932297 27.083558 4.93932297 0.603773585"></polygon>
                <polygon id="路径" points="25.2075793 0.603773585 25.2075793 31.3962264 30.1894826 31.3962264 30.1894826 0.603773585"></polygon>
                <polygon id="路径" points="36.1507345 0.603773585 36.1507345 31.3962264 41.1326379 31.3962264 41.1326379 8.88409704 41.3029593 8.88409704 56.5041516 31.3962264 61.3583138 31.3962264 61.3583138 0.603773585 56.3338301 0.603773585 56.3338301 22.8140162 56.1635086 22.8140162 41.1326379 0.603773585"></polygon>
                <path d="M67.3195657,0.603773585 L67.3195657,19.7088949 C67.3195657,23.7196765 68.4266553,26.7816712 70.6834149,28.9380054 C72.8124335,30.9649596 75.9208005,32 79.9659357,32 C83.9684905,32 87.0768576,30.9649596 89.2910368,28.8948787 C91.5052161,26.7816712 92.6123057,23.7196765 92.6123057,19.7088949 L92.6123057,0.603773585 L87.6304024,0.603773585 L87.6304024,19.7951482 C87.6304024,22.4690027 86.9916968,24.4097035 85.7994465,25.703504 C84.5646157,26.9541779 82.6059187,27.6010782 79.9659357,27.6010782 C77.2833724,27.6010782 75.3246753,26.9541779 74.132425,25.703504 C72.8975942,24.4097035 72.301469,22.4690027 72.301469,19.7951482 L72.301469,0.603773585 L67.3195657,0.603773585 Z" id="路径"></path>
                <polygon id="路径" points="96.4871194 0.603773585 106.663828 15.4824798 95.8058335 31.3962264 101.894826 31.3962264 109.729615 19.4932615 117.564403 31.3962264 123.653396 31.3962264 112.710241 15.4824798 122.97211 0.603773585 116.883117 0.603773585 109.729615 11.4716981 102.576112 0.603773585"></polygon>
                <path d="M141.026187,0.603773585 L141.026187,31.3962264 L152.139664,31.3962264 C157.078987,31.3962264 160.783479,30.0161725 163.338301,27.2560647 C165.765382,24.6253369 167.000213,20.8733154 167.000213,16 C167.000213,11.083558 165.765382,7.33153639 163.338301,4.74393531 C160.783479,1.98382749 157.078987,0.603773585 152.139664,0.603773585 L141.026187,0.603773585 Z M146.00809,4.91644205 L151.202895,4.91644205 C154.992548,4.91644205 157.760273,5.77897574 159.506068,7.54716981 C161.209283,9.2722372 162.06089,12.1185984 162.06089,16 C162.06089,19.7951482 161.209283,22.5983827 159.506068,24.4097035 C157.760273,26.1778976 154.992548,27.083558 151.202895,27.083558 L146.00809,27.083558 L146.00809,4.91644205 Z" id="形状"></path>
                <path d="M185.182031,0 C180.49819,0 176.836278,1.50943396 174.196296,4.61455526 C171.641473,7.54716981 170.406643,11.3423181 170.406643,16.0431267 C170.406643,20.7008086 171.641473,24.4959569 174.196296,27.4285714 C176.836278,30.4474394 180.49819,32 185.182031,32 C189.823291,32 193.485203,30.490566 196.167767,27.4716981 C198.722589,24.5822102 200,20.787062 200,16.0431267 C200,11.2991914 198.722589,7.46091644 196.167767,4.57142857 C193.485203,1.50943396 189.823291,0 185.182031,0 Z M185.182031,4.44204852 C188.332978,4.44204852 190.76006,5.43396226 192.463274,7.50404313 C194.123909,9.57412399 194.975516,12.4204852 194.975516,16.0431267 C194.975516,19.6657682 194.123909,22.4690027 192.463274,24.4959569 C190.76006,26.5229111 188.332978,27.5579515 185.182031,27.5579515 C182.031084,27.5579515 179.561422,26.4797844 177.858207,24.3665768 C176.197573,22.296496 175.388546,19.5363881 175.388546,16.0431267 C175.388546,12.5067385 176.197573,9.74663073 177.858207,7.67654987 C179.604003,5.52021563 182.031084,4.44204852 185.182031,4.44204852 Z" id="形状"></path>
            </g>
            <g id="POWERED-BY" transform="translate(99, 0)" fill="#F0F0F0" fill-rule="nonzero">
                <path d="M1.96,10.008 L1.96,30 L5.236,30 L5.236,22.328 L10.192,22.328 C15.064,22.328 17.5,20.256 17.5,16.14 C17.5,12.052 15.064,10.008 10.248,10.008 L1.96,10.008 Z M5.236,12.808 L9.996,12.808 C11.424,12.808 12.488,13.06 13.16,13.592 C13.832,14.096 14.196,14.936 14.196,16.14 C14.196,17.344 13.86,18.212 13.188,18.744 C12.516,19.248 11.452,19.528 9.996,19.528 L5.236,19.528 L5.236,12.808 Z" id="形状"></path>
                <path d="M29.176,9.616 C26.096,9.616 23.688,10.596 21.952,12.612 C20.272,14.516 19.46,16.98 19.46,20.032 C19.46,23.056 20.272,25.52 21.952,27.424 C23.688,29.384 26.096,30.392 29.176,30.392 C32.228,30.392 34.636,29.412 36.4,27.452 C38.08,25.576 38.92,23.112 38.92,20.032 C38.92,16.952 38.08,14.46 36.4,12.584 C34.636,10.596 32.228,9.616 29.176,9.616 Z M29.176,12.5 C31.248,12.5 32.844,13.144 33.964,14.488 C35.056,15.832 35.616,17.68 35.616,20.032 C35.616,22.384 35.056,24.204 33.964,25.52 C32.844,26.836 31.248,27.508 29.176,27.508 C27.104,27.508 25.48,26.808 24.36,25.436 C23.268,24.092 22.736,22.3 22.736,20.032 C22.736,17.736 23.268,15.944 24.36,14.6 C25.508,13.2 27.104,12.5 29.176,12.5 Z" id="形状"></path>
                <polygon id="路径" points="40.18 10.008 45.92 30 49.42 30 53.34 14.964 53.452 14.964 57.344 30 60.816 30 66.584 10.008 62.888 10.008 59.136 25.212 59.024 25.212 55.076 10.008 51.688 10.008 47.74 25.212 47.628 25.212 43.876 10.008"></polygon>
                <polygon id="路径" points="68.684 10.008 68.684 30 83.58 30 83.58 27.2 71.96 27.2 71.96 21.152 82.432 21.152 82.432 18.352 71.96 18.352 71.96 12.808 83.104 12.808 83.104 10.008"></polygon>
                <path d="M86.66,10.008 L86.66,30 L89.936,30 L89.936,21.852 L95.116,21.852 C96.236,21.852 97.104,22.076 97.692,22.58 C98.252,23.056 98.588,23.84 98.7,24.932 L98.952,27.396 C99.064,28.516 99.344,29.384 99.82,30 L103.376,30 C102.704,29.272 102.284,28.292 102.172,27.06 L101.836,23.84 C101.612,21.88 100.632,20.732 98.896,20.34 L98.896,20.284 C99.96,20.004 100.828,19.416 101.444,18.52 C102.004,17.708 102.284,16.784 102.284,15.748 C102.284,13.844 101.64,12.388 100.408,11.38 C99.232,10.456 97.608,10.008 95.564,10.008 L86.66,10.008 Z M89.936,12.808 L95.116,12.808 C96.46,12.808 97.44,13.032 98.056,13.536 C98.672,14.012 98.98,14.796 98.98,15.888 C98.98,16.896 98.672,17.68 98.056,18.24 C97.384,18.772 96.404,19.052 95.116,19.052 L89.936,19.052 L89.936,12.808 Z" id="形状"></path>
                <polygon id="路径" points="106.176 10.008 106.176 30 121.072 30 121.072 27.2 109.452 27.2 109.452 21.152 119.924 21.152 119.924 18.352 109.452 18.352 109.452 12.808 120.596 12.808 120.596 10.008"></polygon>
                <path d="M124.152,10.008 L124.152,30 L131.46,30 C134.708,30 137.144,29.104 138.824,27.312 C140.42,25.604 141.232,23.168 141.232,20.004 C141.232,16.812 140.42,14.376 138.824,12.696 C137.144,10.904 134.708,10.008 131.46,10.008 L124.152,10.008 Z M127.428,12.808 L130.844,12.808 C133.336,12.808 135.156,13.368 136.304,14.516 C137.424,15.636 137.984,17.484 137.984,20.004 C137.984,22.468 137.424,24.288 136.304,25.464 C135.156,26.612 133.336,27.2 130.844,27.2 L127.428,27.2 L127.428,12.808 Z" id="形状"></path>
                <path d="M162.96,10.008 L162.96,30 L172.144,30 C174.272,30 175.952,29.608 177.128,28.824 C178.5,27.872 179.2,26.388 179.2,24.372 C179.2,23.028 178.864,21.936 178.22,21.152 C177.548,20.34 176.568,19.808 175.252,19.556 C176.26,19.164 177.016,18.632 177.548,17.904 C178.08,17.12 178.36,16.168 178.36,15.048 C178.36,13.536 177.828,12.332 176.792,11.436 C175.672,10.484 174.104,10.008 172.116,10.008 L162.96,10.008 Z M166.236,12.696 L171.304,12.696 C172.648,12.696 173.6,12.92 174.216,13.368 C174.776,13.788 175.084,14.488 175.084,15.44 C175.084,16.476 174.776,17.232 174.216,17.708 C173.628,18.156 172.648,18.408 171.248,18.408 L166.236,18.408 L166.236,12.696 Z M166.236,21.096 L171.752,21.096 C173.208,21.096 174.272,21.348 174.944,21.852 C175.588,22.356 175.924,23.168 175.924,24.316 C175.924,25.436 175.476,26.22 174.58,26.724 C173.88,27.116 172.9,27.312 171.668,27.312 L166.236,27.312 L166.236,21.096 Z" id="形状"></path>
                <polygon id="路径" points="180.46 10.008 188.356 22.048 188.356 30 191.632 30 191.632 22.048 199.528 10.008 195.58 10.008 190.008 18.996 184.408 10.008"></polygon>
            </g>
        </g>
    </g>
</svg>