<?xml version="1.0" encoding="UTF-8"?>
<svg width="309px" height="95px" viewBox="0 0 309 95" version="1.1" xmlns="http://www.w3.org/2000/svg" xmlns:xlink="http://www.w3.org/1999/xlink">
    <title>seal-proud member</title>
    <g id="页面-1" stroke="none" stroke-width="1" fill="none" fill-rule="evenodd">
        <g id="seal-proud-member" transform="translate(1, 1)">
            <path d="M301.7669,0.644431647 L302.490023,1.04959089 C304.134807,2.05844786 305.474732,3.50436052 306.355569,5.23309975 C307.361859,7.20805653 307.5,8.89881904 307.5,16 L307.5,77 C307.5,84.101181 307.361859,85.7919435 306.355569,87.7669002 C305.348898,89.7426022 303.742602,91.3488981 301.7669,92.3555685 C299.791943,93.3618592 298.101181,93.5 291,93.5 L16,93.5 C8.89881904,93.5 7.20805653,93.3618592 5.23309975,92.3555685 C3.25739778,91.3488981 1.65110193,89.7426022 0.644431496,87.7669002 C-0.361859244,85.7919435 -0.5,84.101181 -0.5,77 L-0.5,16 C-0.5,8.89881904 -0.361859244,7.20805653 0.644431496,5.23309975 C1.65110193,3.25739778 3.25739778,1.65110193 5.23309975,0.644431496 C7.20805653,-0.361859244 8.89881904,-0.5 16,-0.5 L291,-0.5 C298.101181,-0.5 299.791943,-0.361859244 301.7669,0.644431647 Z" id="矩形" stroke="#000000" fill="#000000"></path>
            <g id="编组" transform="translate(4, 5)">
                <circle id="椭圆形-2" fill="#F0F0F0" cx="43.1082075" cy="43.1829041" r="40"></circle>
                <circle id="椭圆形" fill="#F0F0F0" cx="42" cy="42" r="42"></circle>
                <path d="M79.4813072,56.0007013 C73.806174,71.1870044 59.1658422,82 42,82 C24.8341578,82 10.193826,71.1870044 4.51869283,56.0007013 Z" id="形状结合" fill="#FFB003"></path>
                <path d="M42,2 C59.1660656,2 73.806555,12.813277 79.4815287,27.9998915 L4.51847131,27.9998915 C10.193445,12.813277 24.8339344,2 42,2 Z" id="形状结合" fill="#1C1C1E"></path>
            </g>
            <g id="LINUX-DO" transform="translate(99.1, 44.16)" fill="#FFFFFF" fill-rule="nonzero">
                <polygon id="路径" points="0 0.603773585 0 31.3962264 21.375346 31.3962264 21.375346 27.083558 4.93932297 27.083558 4.93932297 0.603773585"></polygon>
                <polygon id="路径" points="25.2075793 0.603773585 25.2075793 31.3962264 30.1894826 31.3962264 30.1894826 0.603773585"></polygon>
                <polygon id="路径" points="36.1507345 0.603773585 36.1507345 31.3962264 41.1326379 31.3962264 41.1326379 8.88409704 41.3029593 8.88409704 56.5041516 31.3962264 61.3583138 31.3962264 61.3583138 0.603773585 56.3338301 0.603773585 56.3338301 22.8140162 56.1635086 22.8140162 41.1326379 0.603773585"></polygon>
                <path d="M67.3195657,0.603773585 L67.3195657,19.7088949 C67.3195657,23.7196765 68.4266553,26.7816712 70.6834149,28.9380054 C72.8124335,30.9649596 75.9208005,32 79.9659357,32 C83.9684905,32 87.0768576,30.9649596 89.2910368,28.8948787 C91.5052161,26.7816712 92.6123057,23.7196765 92.6123057,19.7088949 L92.6123057,0.603773585 L87.6304024,0.603773585 L87.6304024,19.7951482 C87.6304024,22.4690027 86.9916968,24.4097035 85.7994465,25.703504 C84.5646157,26.9541779 82.6059187,27.6010782 79.9659357,27.6010782 C77.2833724,27.6010782 75.3246753,26.9541779 74.132425,25.703504 C72.8975942,24.4097035 72.301469,22.4690027 72.301469,19.7951482 L72.301469,0.603773585 L67.3195657,0.603773585 Z" id="路径"></path>
                <polygon id="路径" points="96.4871194 0.603773585 106.663828 15.4824798 95.8058335 31.3962264 101.894826 31.3962264 109.729615 19.4932615 117.564403 31.3962264 123.653396 31.3962264 112.710241 15.4824798 122.97211 0.603773585 116.883117 0.603773585 109.729615 11.4716981 102.576112 0.603773585"></polygon>
                <path d="M141.026187,0.603773585 L141.026187,31.3962264 L152.139664,31.3962264 C157.078987,31.3962264 160.783479,30.0161725 163.338301,27.2560647 C165.765382,24.6253369 167.000213,20.8733154 167.000213,16 C167.000213,11.083558 165.765382,7.33153639 163.338301,4.74393531 C160.783479,1.98382749 157.078987,0.603773585 152.139664,0.603773585 L141.026187,0.603773585 Z M146.00809,4.91644205 L151.202895,4.91644205 C154.992548,4.91644205 157.760273,5.77897574 159.506068,7.54716981 C161.209283,9.2722372 162.06089,12.1185984 162.06089,16 C162.06089,19.7951482 161.209283,22.5983827 159.506068,24.4097035 C157.760273,26.1778976 154.992548,27.083558 151.202895,27.083558 L146.00809,27.083558 L146.00809,4.91644205 Z" id="形状"></path>
                <path d="M185.182031,0 C180.49819,0 176.836278,1.50943396 174.196296,4.61455526 C171.641473,7.54716981 170.406643,11.3423181 170.406643,16.0431267 C170.406643,20.7008086 171.641473,24.4959569 174.196296,27.4285714 C176.836278,30.4474394 180.49819,32 185.182031,32 C189.823291,32 193.485203,30.490566 196.167767,27.4716981 C198.722589,24.5822102 200,20.787062 200,16.0431267 C200,11.2991914 198.722589,7.46091644 196.167767,4.57142857 C193.485203,1.50943396 189.823291,0 185.182031,0 Z M185.182031,4.44204852 C188.332978,4.44204852 190.76006,5.43396226 192.463274,7.50404313 C194.123909,9.57412399 194.975516,12.4204852 194.975516,16.0431267 C194.975516,19.6657682 194.123909,22.4690027 192.463274,24.4959569 C190.76006,26.5229111 188.332978,27.5579515 185.182031,27.5579515 C182.031084,27.5579515 179.561422,26.4797844 177.858207,24.3665768 C176.197573,22.296496 175.388546,19.5363881 175.388546,16.0431267 C175.388546,12.5067385 176.197573,9.74663073 177.858207,7.67654987 C179.604003,5.52021563 182.031084,4.44204852 185.182031,4.44204852 Z" id="形状"></path>
            </g>
            <g id="PROUD-MEMBER" transform="translate(99, 5)" fill="#FFFFFF" fill-rule="nonzero">
                <path d="M1.68,7.864 L1.68,25 L4.488,25 L4.488,18.424 L8.736,18.424 C12.912,18.424 15,16.648 15,13.12 C15,9.616 12.912,7.864 8.784,7.864 L1.68,7.864 Z M4.488,10.264 L8.568,10.264 C9.792,10.264 10.704,10.48 11.28,10.936 C11.856,11.368 12.168,12.088 12.168,13.12 C12.168,14.152 11.88,14.896 11.304,15.352 C10.728,15.784 9.816,16.024 8.568,16.024 L4.488,16.024 L4.488,10.264 Z" id="形状"></path>
                <path d="M17.4,7.864 L17.4,25 L20.208,25 L20.208,18.016 L24.648,18.016 C25.608,18.016 26.352,18.208 26.856,18.64 C27.336,19.048 27.624,19.72 27.72,20.656 L27.936,22.768 C28.032,23.728 28.272,24.472 28.68,25 L31.728,25 C31.152,24.376 30.792,23.536 30.696,22.48 L30.408,19.72 C30.216,18.04 29.376,17.056 27.888,16.72 L27.888,16.672 C28.8,16.432 29.544,15.928 30.072,15.16 C30.552,14.464 30.792,13.672 30.792,12.784 C30.792,11.152 30.24,9.904 29.184,9.04 C28.176,8.248 26.784,7.864 25.032,7.864 L17.4,7.864 Z M20.208,10.264 L24.648,10.264 C25.8,10.264 26.64,10.456 27.168,10.888 C27.696,11.296 27.96,11.968 27.96,12.904 C27.96,13.768 27.696,14.44 27.168,14.92 C26.592,15.376 25.752,15.616 24.648,15.616 L20.208,15.616 L20.208,10.264 Z" id="形状"></path>
                <path d="M41.736,7.528 C39.096,7.528 37.032,8.368 35.544,10.096 C34.104,11.728 33.408,13.84 33.408,16.456 C33.408,19.048 34.104,21.16 35.544,22.792 C37.032,24.472 39.096,25.336 41.736,25.336 C44.352,25.336 46.416,24.496 47.928,22.816 C49.368,21.208 50.088,19.096 50.088,16.456 C50.088,13.816 49.368,11.68 47.928,10.072 C46.416,8.368 44.352,7.528 41.736,7.528 Z M41.736,10 C43.512,10 44.88,10.552 45.84,11.704 C46.776,12.856 47.256,14.44 47.256,16.456 C47.256,18.472 46.776,20.032 45.84,21.16 C44.88,22.288 43.512,22.864 41.736,22.864 C39.96,22.864 38.568,22.264 37.608,21.088 C36.672,19.936 36.216,18.4 36.216,16.456 C36.216,14.488 36.672,12.952 37.608,11.8 C38.592,10.6 39.96,10 41.736,10 Z" id="形状"></path>
                <path d="M52.728,7.864 L52.728,18.496 C52.728,20.728 53.352,22.432 54.624,23.632 C55.824,24.76 57.576,25.336 59.856,25.336 C62.112,25.336 63.864,24.76 65.112,23.608 C66.36,22.432 66.984,20.728 66.984,18.496 L66.984,7.864 L64.176,7.864 L64.176,18.544 C64.176,20.032 63.816,21.112 63.144,21.832 C62.448,22.528 61.344,22.888 59.856,22.888 C58.344,22.888 57.24,22.528 56.568,21.832 C55.872,21.112 55.536,20.032 55.536,18.544 L55.536,7.864 L52.728,7.864 Z" id="路径"></path>
                <path d="M70.344,7.864 L70.344,25 L76.608,25 C79.392,25 81.48,24.232 82.92,22.696 C84.288,21.232 84.984,19.144 84.984,16.432 C84.984,13.696 84.288,11.608 82.92,10.168 C81.48,8.632 79.392,7.864 76.608,7.864 L70.344,7.864 Z M73.152,10.264 L76.08,10.264 C78.216,10.264 79.776,10.744 80.76,11.728 C81.72,12.688 82.2,14.272 82.2,16.432 C82.2,18.544 81.72,20.104 80.76,21.112 C79.776,22.096 78.216,22.6 76.08,22.6 L73.152,22.6 L73.152,10.264 Z" id="形状"></path>
                <polygon id="路径" points="95.616 7.864 95.616 25 98.424 25 98.424 13.192 98.52 13.192 103.56 25 105.984 25 111.024 13.192 111.12 13.192 111.12 25 113.928 25 113.928 7.864 110.64 7.864 104.832 21.304 104.736 21.304 98.904 7.864"></polygon>
                <polygon id="路径" points="117.288 7.864 117.288 25 130.056 25 130.056 22.6 120.096 22.6 120.096 17.416 129.072 17.416 129.072 15.016 120.096 15.016 120.096 10.264 129.648 10.264 129.648 7.864"></polygon>
                <polygon id="路径" points="132.696 7.864 132.696 25 135.504 25 135.504 13.192 135.6 13.192 140.64 25 143.064 25 148.104 13.192 148.2 13.192 148.2 25 151.008 25 151.008 7.864 147.72 7.864 141.912 21.304 141.816 21.304 135.984 7.864"></polygon>
                <path d="M154.368,7.864 L154.368,25 L162.24,25 C164.064,25 165.504,24.664 166.512,23.992 C167.688,23.176 168.288,21.904 168.288,20.176 C168.288,19.024 168,18.088 167.448,17.416 C166.872,16.72 166.032,16.264 164.904,16.048 C165.768,15.712 166.416,15.256 166.872,14.632 C167.328,13.96 167.568,13.144 167.568,12.184 C167.568,10.888 167.112,9.856 166.224,9.088 C165.264,8.272 163.92,7.864 162.216,7.864 L154.368,7.864 Z M157.176,10.168 L161.52,10.168 C162.672,10.168 163.488,10.36 164.016,10.744 C164.496,11.104 164.76,11.704 164.76,12.52 C164.76,13.408 164.496,14.056 164.016,14.464 C163.512,14.848 162.672,15.064 161.472,15.064 L157.176,15.064 L157.176,10.168 Z M157.176,17.368 L161.904,17.368 C163.152,17.368 164.064,17.584 164.64,18.016 C165.192,18.448 165.48,19.144 165.48,20.128 C165.48,21.088 165.096,21.76 164.328,22.192 C163.728,22.528 162.888,22.696 161.832,22.696 L157.176,22.696 L157.176,17.368 Z" id="形状"></path>
                <polygon id="路径" points="170.928 7.864 170.928 25 183.696 25 183.696 22.6 173.736 22.6 173.736 17.416 182.712 17.416 182.712 15.016 173.736 15.016 173.736 10.264 183.288 10.264 183.288 7.864"></polygon>
                <path d="M186.336,7.864 L186.336,25 L189.144,25 L189.144,18.016 L193.584,18.016 C194.544,18.016 195.288,18.208 195.792,18.64 C196.272,19.048 196.56,19.72 196.656,20.656 L196.872,22.768 C196.968,23.728 197.208,24.472 197.616,25 L200.664,25 C200.088,24.376 199.728,23.536 199.632,22.48 L199.344,19.72 C199.152,18.04 198.312,17.056 196.824,16.72 L196.824,16.672 C197.736,16.432 198.48,15.928 199.008,15.16 C199.488,14.464 199.728,13.672 199.728,12.784 C199.728,11.152 199.176,9.904 198.12,9.04 C197.112,8.248 195.72,7.864 193.968,7.864 L186.336,7.864 Z M189.144,10.264 L193.584,10.264 C194.736,10.264 195.576,10.456 196.104,10.888 C196.632,11.296 196.896,11.968 196.896,12.904 C196.896,13.768 196.632,14.44 196.104,14.92 C195.528,15.376 194.688,15.616 193.584,15.616 L189.144,15.616 L189.144,10.264 Z" id="形状"></path>
            </g>
        </g>
    </g>
</svg>