<?xml version="1.0" encoding="UTF-8"?>
<svg width="309px" height="95px" viewBox="0 0 309 95" version="1.1" xmlns="http://www.w3.org/2000/svg" xmlns:xlink="http://www.w3.org/1999/xlink">
    <title>seal-loved by</title>
    <g id="页面-1" stroke="none" stroke-width="1" fill="none" fill-rule="evenodd">
        <g id="seal-loved-by" transform="translate(1, 1)">
            <path d="M301.7669,0.644431647 L302.490023,1.04959089 C304.134807,2.05844786 305.474732,3.50436052 306.355569,5.23309975 C307.361859,7.20805653 307.5,8.89881904 307.5,16 L307.5,77 C307.5,84.101181 307.361859,85.7919435 306.355569,87.7669002 C305.348898,89.7426022 303.742602,91.3488981 301.7669,92.3555685 C299.791943,93.3618592 298.101181,93.5 291,93.5 L16,93.5 C8.89881904,93.5 7.20805653,93.3618592 5.23309975,92.3555685 C3.25739778,91.3488981 1.65110193,89.7426022 0.644431496,87.7669002 C-0.361859244,85.7919435 -0.5,84.101181 -0.5,77 L-0.5,16 C-0.5,8.89881904 -0.361859244,7.20805653 0.644431496,5.23309975 C1.65110193,3.25739778 3.25739778,1.65110193 5.23309975,0.644431496 C7.20805653,-0.361859244 8.89881904,-0.5 16,-0.5 L291,-0.5 C298.101181,-0.5 299.791943,-0.361859244 301.7669,0.644431647 Z" id="矩形" stroke="#000000" fill="#000000"></path>
            <g id="编组" transform="translate(4, 5)">
                <circle id="椭圆形-2" fill="#F0F0F0" cx="43.1082075" cy="43.1829041" r="40"></circle>
                <circle id="椭圆形" fill="#F0F0F0" cx="42" cy="42" r="42"></circle>
                <path d="M79.4813072,56.0007013 C73.806174,71.1870044 59.1658422,82 42,82 C24.8341578,82 10.193826,71.1870044 4.51869283,56.0007013 Z" id="形状结合" fill="#FFB003"></path>
                <path d="M42,2 C59.1660656,2 73.806555,12.813277 79.4815287,27.9998915 L4.51847131,27.9998915 C10.193445,12.813277 24.8339344,2 42,2 Z" id="形状结合" fill="#1C1C1E"></path>
            </g>
            <g id="LINUX-DO" transform="translate(99.1, 44.16)" fill="#FFFFFF" fill-rule="nonzero">
                <polygon id="路径" points="0 0.603773585 0 31.3962264 21.375346 31.3962264 21.375346 27.083558 4.93932297 27.083558 4.93932297 0.603773585"></polygon>
                <polygon id="路径" points="25.2075793 0.603773585 25.2075793 31.3962264 30.1894826 31.3962264 30.1894826 0.603773585"></polygon>
                <polygon id="路径" points="36.1507345 0.603773585 36.1507345 31.3962264 41.1326379 31.3962264 41.1326379 8.88409704 41.3029593 8.88409704 56.5041516 31.3962264 61.3583138 31.3962264 61.3583138 0.603773585 56.3338301 0.603773585 56.3338301 22.8140162 56.1635086 22.8140162 41.1326379 0.603773585"></polygon>
                <path d="M67.3195657,0.603773585 L67.3195657,19.7088949 C67.3195657,23.7196765 68.4266553,26.7816712 70.6834149,28.9380054 C72.8124335,30.9649596 75.9208005,32 79.9659357,32 C83.9684905,32 87.0768576,30.9649596 89.2910368,28.8948787 C91.5052161,26.7816712 92.6123057,23.7196765 92.6123057,19.7088949 L92.6123057,0.603773585 L87.6304024,0.603773585 L87.6304024,19.7951482 C87.6304024,22.4690027 86.9916968,24.4097035 85.7994465,25.703504 C84.5646157,26.9541779 82.6059187,27.6010782 79.9659357,27.6010782 C77.2833724,27.6010782 75.3246753,26.9541779 74.132425,25.703504 C72.8975942,24.4097035 72.301469,22.4690027 72.301469,19.7951482 L72.301469,0.603773585 L67.3195657,0.603773585 Z" id="路径"></path>
                <polygon id="路径" points="96.4871194 0.603773585 106.663828 15.4824798 95.8058335 31.3962264 101.894826 31.3962264 109.729615 19.4932615 117.564403 31.3962264 123.653396 31.3962264 112.710241 15.4824798 122.97211 0.603773585 116.883117 0.603773585 109.729615 11.4716981 102.576112 0.603773585"></polygon>
                <path d="M141.026187,0.603773585 L141.026187,31.3962264 L152.139664,31.3962264 C157.078987,31.3962264 160.783479,30.0161725 163.338301,27.2560647 C165.765382,24.6253369 167.000213,20.8733154 167.000213,16 C167.000213,11.083558 165.765382,7.33153639 163.338301,4.74393531 C160.783479,1.98382749 157.078987,0.603773585 152.139664,0.603773585 L141.026187,0.603773585 Z M146.00809,4.91644205 L151.202895,4.91644205 C154.992548,4.91644205 157.760273,5.77897574 159.506068,7.54716981 C161.209283,9.2722372 162.06089,12.1185984 162.06089,16 C162.06089,19.7951482 161.209283,22.5983827 159.506068,24.4097035 C157.760273,26.1778976 154.992548,27.083558 151.202895,27.083558 L146.00809,27.083558 L146.00809,4.91644205 Z" id="形状"></path>
                <path d="M185.182031,0 C180.49819,0 176.836278,1.50943396 174.196296,4.61455526 C171.641473,7.54716981 170.406643,11.3423181 170.406643,16.0431267 C170.406643,20.7008086 171.641473,24.4959569 174.196296,27.4285714 C176.836278,30.4474394 180.49819,32 185.182031,32 C189.823291,32 193.485203,30.490566 196.167767,27.4716981 C198.722589,24.5822102 200,20.787062 200,16.0431267 C200,11.2991914 198.722589,7.46091644 196.167767,4.57142857 C193.485203,1.50943396 189.823291,0 185.182031,0 Z M185.182031,4.44204852 C188.332978,4.44204852 190.76006,5.43396226 192.463274,7.50404313 C194.123909,9.57412399 194.975516,12.4204852 194.975516,16.0431267 C194.975516,19.6657682 194.123909,22.4690027 192.463274,24.4959569 C190.76006,26.5229111 188.332978,27.5579515 185.182031,27.5579515 C182.031084,27.5579515 179.561422,26.4797844 177.858207,24.3665768 C176.197573,22.296496 175.388546,19.5363881 175.388546,16.0431267 C175.388546,12.5067385 176.197573,9.74663073 177.858207,7.67654987 C179.604003,5.52021563 182.031084,4.44204852 185.182031,4.44204852 Z" id="形状"></path>
            </g>
            <g id="LOVED-BY" transform="translate(154, 0)" fill="#F0F0F0" fill-rule="nonzero">
                <polygon id="路径" points="1.96 10.008 1.96 30 16.016 30 16.016 27.2 5.208 27.2 5.208 10.008"></polygon>
                <path d="M27.412,9.616 C24.332,9.616 21.924,10.596 20.188,12.612 C18.508,14.516 17.696,16.98 17.696,20.032 C17.696,23.056 18.508,25.52 20.188,27.424 C21.924,29.384 24.332,30.392 27.412,30.392 C30.464,30.392 32.872,29.412 34.636,27.452 C36.316,25.576 37.156,23.112 37.156,20.032 C37.156,16.952 36.316,14.46 34.636,12.584 C32.872,10.596 30.464,9.616 27.412,9.616 Z M27.412,12.5 C29.484,12.5 31.08,13.144 32.2,14.488 C33.292,15.832 33.852,17.68 33.852,20.032 C33.852,22.384 33.292,24.204 32.2,25.52 C31.08,26.836 29.484,27.508 27.412,27.508 C25.34,27.508 23.716,26.808 22.596,25.436 C21.504,24.092 20.972,22.3 20.972,20.032 C20.972,17.736 21.504,15.944 22.596,14.6 C23.744,13.2 25.34,12.5 27.412,12.5 Z" id="形状"></path>
                <polygon id="路径" points="38.416 10.008 45.528 30 49.476 30 56.588 10.008 53.032 10.008 47.544 26.304 47.46 26.304 41.972 10.008"></polygon>
                <polygon id="路径" points="58.688 10.008 58.688 30 73.584 30 73.584 27.2 61.964 27.2 61.964 21.152 72.436 21.152 72.436 18.352 61.964 18.352 61.964 12.808 73.108 12.808 73.108 10.008"></polygon>
                <path d="M76.664,10.008 L76.664,30 L83.972,30 C87.22,30 89.656,29.104 91.336,27.312 C92.932,25.604 93.744,23.168 93.744,20.004 C93.744,16.812 92.932,14.376 91.336,12.696 C89.656,10.904 87.22,10.008 83.972,10.008 L76.664,10.008 Z M79.94,12.808 L83.356,12.808 C85.848,12.808 87.668,13.368 88.816,14.516 C89.936,15.636 90.496,17.484 90.496,20.004 C90.496,22.468 89.936,24.288 88.816,25.464 C87.668,26.612 85.848,27.2 83.356,27.2 L79.94,27.2 L79.94,12.808 Z" id="形状"></path>
                <path d="M106.148,10.008 L106.148,30 L115.332,30 C117.46,30 119.14,29.608 120.316,28.824 C121.688,27.872 122.388,26.388 122.388,24.372 C122.388,23.028 122.052,21.936 121.408,21.152 C120.736,20.34 119.756,19.808 118.44,19.556 C119.448,19.164 120.204,18.632 120.736,17.904 C121.268,17.12 121.548,16.168 121.548,15.048 C121.548,13.536 121.016,12.332 119.98,11.436 C118.86,10.484 117.292,10.008 115.304,10.008 L106.148,10.008 Z M109.424,12.696 L114.492,12.696 C115.836,12.696 116.788,12.92 117.404,13.368 C117.964,13.788 118.272,14.488 118.272,15.44 C118.272,16.476 117.964,17.232 117.404,17.708 C116.816,18.156 115.836,18.408 114.436,18.408 L109.424,18.408 L109.424,12.696 Z M109.424,21.096 L114.94,21.096 C116.396,21.096 117.46,21.348 118.132,21.852 C118.776,22.356 119.112,23.168 119.112,24.316 C119.112,25.436 118.664,26.22 117.768,26.724 C117.068,27.116 116.088,27.312 114.856,27.312 L109.424,27.312 L109.424,21.096 Z" id="形状"></path>
                <polygon id="路径" points="123.648 10.008 131.544 22.048 131.544 30 134.82 30 134.82 22.048 142.716 10.008 138.768 10.008 133.196 18.996 127.596 10.008"></polygon>
            </g>
        </g>
    </g>
</svg>