<?xml version="1.0" encoding="UTF-8"?>
<svg width="309px" height="95px" viewBox="0 0 309 95" version="1.1" xmlns="http://www.w3.org/2000/svg" xmlns:xlink="http://www.w3.org/1999/xlink">
    <title>seal-proudly from</title>
    <g id="页面-1" stroke="none" stroke-width="1" fill="none" fill-rule="evenodd">
        <g id="seal-proudly-from" transform="translate(1, 1)">
            <path d="M301.7669,0.644431647 L302.490023,1.04959089 C304.134807,2.05844786 305.474732,3.50436052 306.355569,5.23309975 C307.361859,7.20805653 307.5,8.89881904 307.5,16 L307.5,77 C307.5,84.101181 307.361859,85.7919435 306.355569,87.7669002 C305.348898,89.7426022 303.742602,91.3488981 301.7669,92.3555685 C299.791943,93.3618592 298.101181,93.5 291,93.5 L16,93.5 C8.89881904,93.5 7.20805653,93.3618592 5.23309975,92.3555685 C3.25739778,91.3488981 1.65110193,89.7426022 0.644431496,87.7669002 C-0.361859244,85.7919435 -0.5,84.101181 -0.5,77 L-0.5,16 C-0.5,8.89881904 -0.361859244,7.20805653 0.644431496,5.23309975 C1.65110193,3.25739778 3.25739778,1.65110193 5.23309975,0.644431496 C7.20805653,-0.361859244 8.89881904,-0.5 16,-0.5 L291,-0.5 C298.101181,-0.5 299.791943,-0.361859244 301.7669,0.644431647 Z" id="矩形" stroke="#000000" fill="#000000"></path>
            <g id="编组" transform="translate(4, 5)">
                <circle id="椭圆形-2" fill="#F0F0F0" cx="43.1082075" cy="43.1829041" r="40"></circle>
                <circle id="椭圆形" fill="#F0F0F0" cx="42" cy="42" r="42"></circle>
                <path d="M79.4813072,56.0007013 C73.806174,71.1870044 59.1658422,82 42,82 C24.8341578,82 10.193826,71.1870044 4.51869283,56.0007013 Z" id="形状结合" fill="#FFB003"></path>
                <path d="M42,2 C59.1660656,2 73.806555,12.813277 79.4815287,27.9998915 L4.51847131,27.9998915 C10.193445,12.813277 24.8339344,2 42,2 Z" id="形状结合" fill="#1C1C1E"></path>
            </g>
            <g id="LINUX-DO" transform="translate(99.1, 13.16)" fill="#FFFFFF" fill-rule="nonzero">
                <polygon id="路径" points="0 0.603773585 0 31.3962264 21.375346 31.3962264 21.375346 27.083558 4.93932297 27.083558 4.93932297 0.603773585"></polygon>
                <polygon id="路径" points="25.2075793 0.603773585 25.2075793 31.3962264 30.1894826 31.3962264 30.1894826 0.603773585"></polygon>
                <polygon id="路径" points="36.1507345 0.603773585 36.1507345 31.3962264 41.1326379 31.3962264 41.1326379 8.88409704 41.3029593 8.88409704 56.5041516 31.3962264 61.3583138 31.3962264 61.3583138 0.603773585 56.3338301 0.603773585 56.3338301 22.8140162 56.1635086 22.8140162 41.1326379 0.603773585"></polygon>
                <path d="M67.3195657,0.603773585 L67.3195657,19.7088949 C67.3195657,23.7196765 68.4266553,26.7816712 70.6834149,28.9380054 C72.8124335,30.9649596 75.9208005,32 79.9659357,32 C83.9684905,32 87.0768576,30.9649596 89.2910368,28.8948787 C91.5052161,26.7816712 92.6123057,23.7196765 92.6123057,19.7088949 L92.6123057,0.603773585 L87.6304024,0.603773585 L87.6304024,19.7951482 C87.6304024,22.4690027 86.9916968,24.4097035 85.7994465,25.703504 C84.5646157,26.9541779 82.6059187,27.6010782 79.9659357,27.6010782 C77.2833724,27.6010782 75.3246753,26.9541779 74.132425,25.703504 C72.8975942,24.4097035 72.301469,22.4690027 72.301469,19.7951482 L72.301469,0.603773585 L67.3195657,0.603773585 Z" id="路径"></path>
                <polygon id="路径" points="96.4871194 0.603773585 106.663828 15.4824798 95.8058335 31.3962264 101.894826 31.3962264 109.729615 19.4932615 117.564403 31.3962264 123.653396 31.3962264 112.710241 15.4824798 122.97211 0.603773585 116.883117 0.603773585 109.729615 11.4716981 102.576112 0.603773585"></polygon>
                <path d="M141.026187,0.603773585 L141.026187,31.3962264 L152.139664,31.3962264 C157.078987,31.3962264 160.783479,30.0161725 163.338301,27.2560647 C165.765382,24.6253369 167.000213,20.8733154 167.000213,16 C167.000213,11.083558 165.765382,7.33153639 163.338301,4.74393531 C160.783479,1.98382749 157.078987,0.603773585 152.139664,0.603773585 L141.026187,0.603773585 Z M146.00809,4.91644205 L151.202895,4.91644205 C154.992548,4.91644205 157.760273,5.77897574 159.506068,7.54716981 C161.209283,9.2722372 162.06089,12.1185984 162.06089,16 C162.06089,19.7951482 161.209283,22.5983827 159.506068,24.4097035 C157.760273,26.1778976 154.992548,27.083558 151.202895,27.083558 L146.00809,27.083558 L146.00809,4.91644205 Z" id="形状"></path>
                <path d="M185.182031,0 C180.49819,0 176.836278,1.50943396 174.196296,4.61455526 C171.641473,7.54716981 170.406643,11.3423181 170.406643,16.0431267 C170.406643,20.7008086 171.641473,24.4959569 174.196296,27.4285714 C176.836278,30.4474394 180.49819,32 185.182031,32 C189.823291,32 193.485203,30.490566 196.167767,27.4716981 C198.722589,24.5822102 200,20.787062 200,16.0431267 C200,11.2991914 198.722589,7.46091644 196.167767,4.57142857 C193.485203,1.50943396 189.823291,0 185.182031,0 Z M185.182031,4.44204852 C188.332978,4.44204852 190.76006,5.43396226 192.463274,7.50404313 C194.123909,9.57412399 194.975516,12.4204852 194.975516,16.0431267 C194.975516,19.6657682 194.123909,22.4690027 192.463274,24.4959569 C190.76006,26.5229111 188.332978,27.5579515 185.182031,27.5579515 C182.031084,27.5579515 179.561422,26.4797844 177.858207,24.3665768 C176.197573,22.296496 175.388546,19.5363881 175.388546,16.0431267 C175.388546,12.5067385 176.197573,9.74663073 177.858207,7.67654987 C179.604003,5.52021563 182.031084,4.44204852 185.182031,4.44204852 Z" id="形状"></path>
            </g>
            <g id="PROUDLY-FROM" transform="translate(99.54, 58.984)" fill="#F0F0F0" fill-rule="nonzero">
                <path d="M0,0.396226415 L0,20.6037736 L2.90529074,20.6037736 L2.90529074,12.8490566 L7.30047417,12.8490566 C11.621163,12.8490566 13.7815074,10.754717 13.7815074,6.59433962 C13.7815074,2.46226415 11.621163,0.396226415 7.35013726,0.396226415 L0,0.396226415 Z M2.90529074,3.22641509 L7.12665336,3.22641509 C8.39306214,3.22641509 9.33666084,3.48113208 9.93261792,4.01886792 C10.528575,4.52830189 10.8513851,5.37735849 10.8513851,6.59433962 C10.8513851,7.81132075 10.5534065,8.68867925 9.95744946,9.22641509 C9.36149239,9.73584906 8.41789369,10.0188679 7.12665336,10.0188679 L2.90529074,10.0188679 L2.90529074,3.22641509 Z" id="形状"></path>
                <path d="M16.2646618,0.396226415 L16.2646618,20.6037736 L19.1699526,20.6037736 L19.1699526,12.3679245 L23.7637884,12.3679245 C24.7570502,12.3679245 25.5268281,12.5943396 26.0482905,13.1037736 C26.5449214,13.5849057 26.8428999,14.3773585 26.9422261,15.4811321 L27.16571,17.9716981 C27.2650362,19.1037736 27.5133516,19.9811321 27.9354879,20.6037736 L31.0890941,20.6037736 C30.493137,19.8679245 30.1206638,18.8773585 30.0213377,17.6320755 L29.7233591,14.3773585 C29.5247068,12.3962264 28.6556027,11.2358491 27.1160469,10.8396226 L27.1160469,10.7830189 C28.0596456,10.5 28.8294235,9.90566038 29.3757175,9 C29.8723484,8.17924528 30.1206638,7.24528302 30.1206638,6.19811321 C30.1206638,4.27358491 29.5495383,2.80188679 28.4569503,1.78301887 C27.4140255,0.849056604 25.9737959,0.396226415 24.1610931,0.396226415 L16.2646618,0.396226415 Z M19.1699526,3.22641509 L23.7637884,3.22641509 C24.9557025,3.22641509 25.8248066,3.45283019 26.3711006,3.96226415 C26.9173946,4.44339623 27.1905416,5.23584906 27.1905416,6.33962264 C27.1905416,7.35849057 26.9173946,8.1509434 26.3711006,8.71698113 C25.7751435,9.25471698 24.9060394,9.53773585 23.7637884,9.53773585 L19.1699526,9.53773585 L19.1699526,3.22641509 Z" id="形状"></path>
                <path d="M41.4438483,-9.14077276e-15 C38.7123783,-9.14077276e-15 36.5768655,0.990566038 35.0373097,3.02830189 C33.547417,4.95283019 32.8273022,7.44339623 32.8273022,10.5283019 C32.8273022,13.5849057 33.547417,16.0754717 35.0373097,18 C36.5768655,19.9811321 38.7123783,21 41.4438483,21 C44.1504866,21 46.2859995,20.009434 47.8503868,18.0283019 C49.3402795,16.1320755 50.0852259,13.6415094 50.0852259,10.5283019 C50.0852259,7.41509434 49.3402795,4.89622642 47.8503868,3 C46.2859995,0.990566038 44.1504866,-9.14077276e-15 41.4438483,-9.14077276e-15 Z M41.4438483,2.91509434 C43.2813826,2.91509434 44.6967806,3.56603774 45.6900424,4.9245283 C46.6584727,6.28301887 47.1551036,8.1509434 47.1551036,10.5283019 C47.1551036,12.9056604 46.6584727,14.745283 45.6900424,16.0754717 C44.6967806,17.4056604 43.2813826,18.0849057 41.4438483,18.0849057 C39.606314,18.0849057 38.1660844,17.3773585 37.1728226,15.990566 C36.2043923,14.6320755 35.732593,12.8207547 35.732593,10.5283019 C35.732593,8.20754717 36.2043923,6.39622642 37.1728226,5.03773585 C38.1909159,3.62264151 39.606314,2.91509434 41.4438483,2.91509434 Z" id="形状"></path>
                <path d="M52.8166958,0.396226415 L52.8166958,12.9339623 C52.8166958,15.5660377 53.4623159,17.5754717 54.7783878,18.990566 C56.0199651,20.3207547 57.8326678,21 60.1916646,21 C62.5258298,21 64.3385326,20.3207547 65.6297729,18.9622642 C66.9210132,17.5754717 67.5666334,15.5660377 67.5666334,12.9339623 L67.5666334,0.396226415 L64.6613427,0.396226415 L64.6613427,12.990566 C64.6613427,14.745283 64.2888695,16.0188679 63.5935862,16.8679245 C62.8734714,17.6886792 61.7312204,18.1132075 60.1916646,18.1132075 C58.6272773,18.1132075 57.4850262,17.6886792 56.7897429,16.8679245 C56.0696282,16.0188679 55.7219865,14.745283 55.7219865,12.990566 L55.7219865,0.396226415 L52.8166958,0.396226415 Z" id="路径"></path>
                <path d="M71.0430497,0.396226415 L71.0430497,20.6037736 L77.5240829,20.6037736 C80.4045421,20.6037736 82.5648864,19.6981132 84.0547791,17.8867925 C85.4701772,16.1603774 86.190292,13.6981132 86.190292,10.5 C86.190292,7.27358491 85.4701772,4.81132075 84.0547791,3.11320755 C82.5648864,1.30188679 80.4045421,0.396226415 77.5240829,0.396226415 L71.0430497,0.396226415 Z M73.9483404,3.22641509 L76.9777889,3.22641509 C79.1877964,3.22641509 80.8018468,3.79245283 81.8199401,4.95283019 C82.8132019,6.08490566 83.3098328,7.95283019 83.3098328,10.5 C83.3098328,12.990566 82.8132019,14.8301887 81.8199401,16.0188679 C80.8018468,17.1792453 79.1877964,17.7735849 76.9777889,17.7735849 L73.9483404,17.7735849 L73.9483404,3.22641509 Z" id="形状"></path>
                <polygon id="路径" points="88.9217619 0.396226415 88.9217619 20.6037736 101.387197 20.6037736 101.387197 17.7735849 91.8022211 17.7735849 91.8022211 0.396226415"></polygon>
                <polygon id="路径" points="102.007986 0.396226415 109.010482 12.5660377 109.010482 20.6037736 111.915772 20.6037736 111.915772 12.5660377 118.918268 0.396226415 115.41702 0.396226415 110.475543 9.48113208 105.509234 0.396226415"></polygon>
                <polygon id="路径" points="129.049538 0.396226415 129.049538 20.6037736 131.954829 20.6037736 131.954829 11.6603774 140.621038 11.6603774 140.621038 8.83018868 131.954829 8.83018868 131.954829 3.22641509 141.142501 3.22641509 141.142501 0.396226415"></polygon>
                <path d="M143.501497,0.396226415 L143.501497,20.6037736 L146.406788,20.6037736 L146.406788,12.3679245 L151.000624,12.3679245 C151.993886,12.3679245 152.763664,12.5943396 153.285126,13.1037736 C153.781757,13.5849057 154.079735,14.3773585 154.179062,15.4811321 L154.402546,17.9716981 C154.501872,19.1037736 154.750187,19.9811321 155.172323,20.6037736 L158.32593,20.6037736 C157.729973,19.8679245 157.357499,18.8773585 157.258173,17.6320755 L156.960195,14.3773585 C156.761542,12.3962264 155.892438,11.2358491 154.352882,10.8396226 L154.352882,10.7830189 C155.296481,10.5 156.066259,9.90566038 156.612553,9 C157.109184,8.17924528 157.357499,7.24528302 157.357499,6.19811321 C157.357499,4.27358491 156.786374,2.80188679 155.693786,1.78301887 C154.650861,0.849056604 153.210631,0.396226415 151.397929,0.396226415 L143.501497,0.396226415 Z M146.406788,3.22641509 L151.000624,3.22641509 C152.192538,3.22641509 153.061642,3.45283019 153.607936,3.96226415 C154.15423,4.44339623 154.427377,5.23584906 154.427377,6.33962264 C154.427377,7.35849057 154.15423,8.1509434 153.607936,8.71698113 C153.011979,9.25471698 152.142875,9.53773585 151.000624,9.53773585 L146.406788,9.53773585 L146.406788,3.22641509 Z" id="形状"></path>
                <path d="M168.680684,-9.14077276e-15 C165.949214,-9.14077276e-15 163.813701,0.990566038 162.274145,3.02830189 C160.784253,4.95283019 160.064138,7.44339623 160.064138,10.5283019 C160.064138,13.5849057 160.784253,16.0754717 162.274145,18 C163.813701,19.9811321 165.949214,21 168.680684,21 C171.387322,21 173.522835,20.009434 175.087222,18.0283019 C176.577115,16.1320755 177.322061,13.6415094 177.322061,10.5283019 C177.322061,7.41509434 176.577115,4.89622642 175.087222,3 C173.522835,0.990566038 171.387322,-9.14077276e-15 168.680684,-9.14077276e-15 Z M168.680684,2.91509434 C170.518218,2.91509434 171.933616,3.56603774 172.926878,4.9245283 C173.895308,6.28301887 174.391939,8.1509434 174.391939,10.5283019 C174.391939,12.9056604 173.895308,14.745283 172.926878,16.0754717 C171.933616,17.4056604 170.518218,18.0849057 168.680684,18.0849057 C166.843149,18.0849057 165.40292,17.3773585 164.409658,15.990566 C163.441228,14.6320755 162.969429,12.8207547 162.969429,10.5283019 C162.969429,8.20754717 163.441228,6.39622642 164.409658,5.03773585 C165.427751,3.62264151 166.843149,2.91509434 168.680684,2.91509434 Z" id="形状"></path>
                <polygon id="路径" points="180.053531 0.396226415 180.053531 20.6037736 182.958822 20.6037736 182.958822 6.67924528 183.058148 6.67924528 188.272773 20.6037736 190.780759 20.6037736 195.995383 6.67924528 196.094709 6.67924528 196.094709 20.6037736 199 20.6037736 199 0.396226415 195.598078 0.396226415 189.588845 16.245283 189.489518 16.245283 183.455453 0.396226415"></polygon>
            </g>
        </g>
    </g>
</svg>