<?xml version="1.0" encoding="UTF-8"?>
<svg width="309px" height="95px" viewBox="0 0 309 95" version="1.1" xmlns="http://www.w3.org/2000/svg" xmlns:xlink="http://www.w3.org/1999/xlink">
    <title>seal-best community</title>
    <g id="页面-1" stroke="none" stroke-width="1" fill="none" fill-rule="evenodd">
        <g id="seal-best-community" transform="translate(1, 1)">
            <path d="M301.7669,0.644431647 L302.490023,1.04959089 C304.134807,2.05844786 305.474732,3.50436052 306.355569,5.23309975 C307.361859,7.20805653 307.5,8.89881904 307.5,16 L307.5,77 C307.5,84.101181 307.361859,85.7919435 306.355569,87.7669002 C305.348898,89.7426022 303.742602,91.3488981 301.7669,92.3555685 C299.791943,93.3618592 298.101181,93.5 291,93.5 L16,93.5 C8.89881904,93.5 7.20805653,93.3618592 5.23309975,92.3555685 C3.25739778,91.3488981 1.65110193,89.7426022 0.644431496,87.7669002 C-0.361859244,85.7919435 -0.5,84.101181 -0.5,77 L-0.5,16 C-0.5,8.89881904 -0.361859244,7.20805653 0.644431496,5.23309975 C1.65110193,3.25739778 3.25739778,1.65110193 5.23309975,0.644431496 C7.20805653,-0.361859244 8.89881904,-0.5 16,-0.5 L291,-0.5 C298.101181,-0.5 299.791943,-0.361859244 301.7669,0.644431647 Z" id="矩形" stroke="#000000" fill="#000000"></path>
            <g id="编组" transform="translate(4, 5)">
                <circle id="椭圆形-2" fill="#F0F0F0" cx="43.1082075" cy="43.1829041" r="40"></circle>
                <circle id="椭圆形" fill="#F0F0F0" cx="42" cy="42" r="42"></circle>
                <path d="M79.4813072,56.0007013 C73.806174,71.1870044 59.1658422,82 42,82 C24.8341578,82 10.193826,71.1870044 4.51869283,56.0007013 Z" id="形状结合" fill="#FFB003"></path>
                <path d="M42,2 C59.1660656,2 73.806555,12.813277 79.4815287,27.9998915 L4.51847131,27.9998915 C10.193445,12.813277 24.8339344,2 42,2 Z" id="形状结合" fill="#1C1C1E"></path>
            </g>
            <g id="LINUX-DO" transform="translate(99.1, 13.16)" fill="#FFFFFF" fill-rule="nonzero">
                <polygon id="路径" points="0 0.603773585 0 31.3962264 21.375346 31.3962264 21.375346 27.083558 4.93932297 27.083558 4.93932297 0.603773585"></polygon>
                <polygon id="路径" points="25.2075793 0.603773585 25.2075793 31.3962264 30.1894826 31.3962264 30.1894826 0.603773585"></polygon>
                <polygon id="路径" points="36.1507345 0.603773585 36.1507345 31.3962264 41.1326379 31.3962264 41.1326379 8.88409704 41.3029593 8.88409704 56.5041516 31.3962264 61.3583138 31.3962264 61.3583138 0.603773585 56.3338301 0.603773585 56.3338301 22.8140162 56.1635086 22.8140162 41.1326379 0.603773585"></polygon>
                <path d="M67.3195657,0.603773585 L67.3195657,19.7088949 C67.3195657,23.7196765 68.4266553,26.7816712 70.6834149,28.9380054 C72.8124335,30.9649596 75.9208005,32 79.9659357,32 C83.9684905,32 87.0768576,30.9649596 89.2910368,28.8948787 C91.5052161,26.7816712 92.6123057,23.7196765 92.6123057,19.7088949 L92.6123057,0.603773585 L87.6304024,0.603773585 L87.6304024,19.7951482 C87.6304024,22.4690027 86.9916968,24.4097035 85.7994465,25.703504 C84.5646157,26.9541779 82.6059187,27.6010782 79.9659357,27.6010782 C77.2833724,27.6010782 75.3246753,26.9541779 74.132425,25.703504 C72.8975942,24.4097035 72.301469,22.4690027 72.301469,19.7951482 L72.301469,0.603773585 L67.3195657,0.603773585 Z" id="路径"></path>
                <polygon id="路径" points="96.4871194 0.603773585 106.663828 15.4824798 95.8058335 31.3962264 101.894826 31.3962264 109.729615 19.4932615 117.564403 31.3962264 123.653396 31.3962264 112.710241 15.4824798 122.97211 0.603773585 116.883117 0.603773585 109.729615 11.4716981 102.576112 0.603773585"></polygon>
                <path d="M141.026187,0.603773585 L141.026187,31.3962264 L152.139664,31.3962264 C157.078987,31.3962264 160.783479,30.0161725 163.338301,27.2560647 C165.765382,24.6253369 167.000213,20.8733154 167.000213,16 C167.000213,11.083558 165.765382,7.33153639 163.338301,4.74393531 C160.783479,1.98382749 157.078987,0.603773585 152.139664,0.603773585 L141.026187,0.603773585 Z M146.00809,4.91644205 L151.202895,4.91644205 C154.992548,4.91644205 157.760273,5.77897574 159.506068,7.54716981 C161.209283,9.2722372 162.06089,12.1185984 162.06089,16 C162.06089,19.7951482 161.209283,22.5983827 159.506068,24.4097035 C157.760273,26.1778976 154.992548,27.083558 151.202895,27.083558 L146.00809,27.083558 L146.00809,4.91644205 Z" id="形状"></path>
                <path d="M185.182031,0 C180.49819,0 176.836278,1.50943396 174.196296,4.61455526 C171.641473,7.54716981 170.406643,11.3423181 170.406643,16.0431267 C170.406643,20.7008086 171.641473,24.4959569 174.196296,27.4285714 C176.836278,30.4474394 180.49819,32 185.182031,32 C189.823291,32 193.485203,30.490566 196.167767,27.4716981 C198.722589,24.5822102 200,20.787062 200,16.0431267 C200,11.2991914 198.722589,7.46091644 196.167767,4.57142857 C193.485203,1.50943396 189.823291,0 185.182031,0 Z M185.182031,4.44204852 C188.332978,4.44204852 190.76006,5.43396226 192.463274,7.50404313 C194.123909,9.57412399 194.975516,12.4204852 194.975516,16.0431267 C194.975516,19.6657682 194.123909,22.4690027 192.463274,24.4959569 C190.76006,26.5229111 188.332978,27.5579515 185.182031,27.5579515 C182.031084,27.5579515 179.561422,26.4797844 177.858207,24.3665768 C176.197573,22.296496 175.388546,19.5363881 175.388546,16.0431267 C175.388546,12.5067385 176.197573,9.74663073 177.858207,7.67654987 C179.604003,5.52021563 182.031084,4.44204852 185.182031,4.44204852 Z" id="形状"></path>
            </g>
            <g id="BEST-COMMUNITY" transform="translate(99, 53)" fill="#F0F0F0" fill-rule="nonzero">
                <path d="M1.54,7.292 L1.54,23 L8.756,23 C10.428,23 11.748,22.692 12.672,22.076 C13.75,21.328 14.3,20.162 14.3,18.578 C14.3,17.522 14.036,16.664 13.53,16.048 C13.002,15.41 12.232,14.992 11.198,14.794 C11.99,14.486 12.584,14.068 13.002,13.496 C13.42,12.88 13.64,12.132 13.64,11.252 C13.64,10.064 13.222,9.118 12.408,8.414 C11.528,7.666 10.296,7.292 8.734,7.292 L1.54,7.292 Z M4.114,9.404 L8.096,9.404 C9.152,9.404 9.9,9.58 10.384,9.932 C10.824,10.262 11.066,10.812 11.066,11.56 C11.066,12.374 10.824,12.968 10.384,13.342 C9.922,13.694 9.152,13.892 8.052,13.892 L4.114,13.892 L4.114,9.404 Z M4.114,16.004 L8.448,16.004 C9.592,16.004 10.428,16.202 10.956,16.598 C11.462,16.994 11.726,17.632 11.726,18.534 C11.726,19.414 11.374,20.03 10.67,20.426 C10.12,20.734 9.35,20.888 8.382,20.888 L4.114,20.888 L4.114,16.004 Z" id="形状"></path>
                <polygon id="路径" points="16.72 7.292 16.72 23 28.424 23 28.424 20.8 19.294 20.8 19.294 16.048 27.522 16.048 27.522 13.848 19.294 13.848 19.294 9.492 28.05 9.492 28.05 7.292"></polygon>
                <path d="M36.388,6.984 C34.694,6.984 33.308,7.358 32.208,8.128 C31.02,8.92 30.448,10.02 30.448,11.406 C30.448,12.792 31.042,13.848 32.252,14.574 C32.714,14.838 33.924,15.278 35.86,15.894 C37.598,16.422 38.61,16.774 38.918,16.928 C39.886,17.412 40.392,18.072 40.392,18.908 C40.392,19.568 40.04,20.074 39.38,20.47 C38.72,20.844 37.796,21.042 36.652,21.042 C35.354,21.042 34.408,20.8 33.792,20.36 C33.11,19.854 32.692,18.996 32.516,17.808 L29.964,17.808 C30.074,19.81 30.8,21.262 32.12,22.186 C33.198,22.934 34.716,23.308 36.652,23.308 C38.654,23.308 40.216,22.89 41.316,22.098 C42.416,21.284 42.966,20.162 42.966,18.754 C42.966,17.302 42.284,16.18 40.92,15.366 C40.304,15.014 38.94,14.486 36.806,13.826 C35.354,13.364 34.452,13.034 34.122,12.858 C33.374,12.462 33.022,11.912 33.022,11.252 C33.022,10.504 33.33,9.954 33.99,9.624 C34.518,9.338 35.266,9.206 36.256,9.206 C37.4,9.206 38.28,9.404 38.852,9.844 C39.424,10.262 39.842,10.966 40.062,11.934 L42.614,11.934 C42.46,10.218 41.822,8.942 40.722,8.128 C39.688,7.358 38.236,6.984 36.388,6.984 Z" id="路径"></path>
                <polygon id="路径" points="43.956 7.292 43.956 9.492 49.104 9.492 49.104 23 51.678 23 51.678 9.492 56.826 9.492 56.826 7.292"></polygon>
                <path d="M72.842,6.984 C70.334,6.984 68.42,7.798 67.1,9.47 C65.934,10.922 65.362,12.836 65.362,15.168 C65.362,17.544 65.912,19.436 67.034,20.844 C68.31,22.472 70.268,23.308 72.886,23.308 C74.58,23.308 76.032,22.824 77.242,21.856 C78.54,20.822 79.354,19.392 79.706,17.544 L77.198,17.544 C76.89,18.732 76.362,19.634 75.614,20.228 C74.91,20.756 73.986,21.042 72.864,21.042 C71.148,21.042 69.872,20.492 69.058,19.436 C68.31,18.446 67.936,17.016 67.936,15.168 C67.936,13.364 68.31,11.956 69.08,10.944 C69.916,9.8 71.148,9.25 72.798,9.25 C73.898,9.25 74.8,9.47 75.504,9.954 C76.23,10.438 76.714,11.186 76.978,12.22 L79.486,12.22 C79.244,10.636 78.562,9.36 77.418,8.436 C76.23,7.468 74.69,6.984 72.842,6.984 Z" id="路径"></path>
                <path d="M89.1,6.984 C86.68,6.984 84.788,7.754 83.424,9.338 C82.104,10.834 81.466,12.77 81.466,15.168 C81.466,17.544 82.104,19.48 83.424,20.976 C84.788,22.516 86.68,23.308 89.1,23.308 C91.498,23.308 93.39,22.538 94.776,20.998 C96.096,19.524 96.756,17.588 96.756,15.168 C96.756,12.748 96.096,10.79 94.776,9.316 C93.39,7.754 91.498,6.984 89.1,6.984 Z M89.1,9.25 C90.728,9.25 91.982,9.756 92.862,10.812 C93.72,11.868 94.16,13.32 94.16,15.168 C94.16,17.016 93.72,18.446 92.862,19.48 C91.982,20.514 90.728,21.042 89.1,21.042 C87.472,21.042 86.196,20.492 85.316,19.414 C84.458,18.358 84.04,16.95 84.04,15.168 C84.04,13.364 84.458,11.956 85.316,10.9 C86.218,9.8 87.472,9.25 89.1,9.25 Z" id="形状"></path>
                <polygon id="路径" points="99.176 7.292 99.176 23 101.75 23 101.75 12.176 101.838 12.176 106.458 23 108.68 23 113.3 12.176 113.388 12.176 113.388 23 115.962 23 115.962 7.292 112.948 7.292 107.624 19.612 107.536 19.612 102.19 7.292"></polygon>
                <polygon id="路径" points="119.042 7.292 119.042 23 121.616 23 121.616 12.176 121.704 12.176 126.324 23 128.546 23 133.166 12.176 133.254 12.176 133.254 23 135.828 23 135.828 7.292 132.814 7.292 127.49 19.612 127.402 19.612 122.056 7.292"></polygon>
                <path d="M138.908,7.292 L138.908,17.038 C138.908,19.084 139.48,20.646 140.646,21.746 C141.746,22.78 143.352,23.308 145.442,23.308 C147.51,23.308 149.116,22.78 150.26,21.724 C151.404,20.646 151.976,19.084 151.976,17.038 L151.976,7.292 L149.402,7.292 L149.402,17.082 C149.402,18.446 149.072,19.436 148.456,20.096 C147.818,20.734 146.806,21.064 145.442,21.064 C144.056,21.064 143.044,20.734 142.428,20.096 C141.79,19.436 141.482,18.446 141.482,17.082 L141.482,7.292 L138.908,7.292 Z" id="路径"></path>
                <polygon id="路径" points="155.056 7.292 155.056 23 157.63 23 157.63 11.516 157.718 11.516 165.572 23 168.08 23 168.08 7.292 165.484 7.292 165.484 18.622 165.396 18.622 157.63 7.292"></polygon>
                <polygon id="路径" points="171.16 7.292 171.16 23 173.734 23 173.734 7.292"></polygon>
                <polygon id="路径" points="175.604 7.292 175.604 9.492 180.752 9.492 180.752 23 183.326 23 183.326 9.492 188.474 9.492 188.474 7.292"></polygon>
                <polygon id="路径" points="188.914 7.292 195.118 16.752 195.118 23 197.692 23 197.692 16.752 203.896 7.292 200.794 7.292 196.416 14.354 192.016 7.292"></polygon>
            </g>
        </g>
    </g>
</svg>