<?xml version="1.0" encoding="UTF-8"?>
<svg width="309px" height="95px" viewBox="0 0 309 95" version="1.1" xmlns="http://www.w3.org/2000/svg" xmlns:xlink="http://www.w3.org/1999/xlink">
    <title>seal-support by</title>
    <g id="页面-1" stroke="none" stroke-width="1" fill="none" fill-rule="evenodd">
        <g id="seal-support-by" transform="translate(1, 1)">
            <path d="M301.7669,0.644431647 L302.490023,1.04959089 C304.134807,2.05844786 305.474732,3.50436052 306.355569,5.23309975 C307.361859,7.20805653 307.5,8.89881904 307.5,16 L307.5,77 C307.5,84.101181 307.361859,85.7919435 306.355569,87.7669002 C305.348898,89.7426022 303.742602,91.3488981 301.7669,92.3555685 C299.791943,93.3618592 298.101181,93.5 291,93.5 L16,93.5 C8.89881904,93.5 7.20805653,93.3618592 5.23309975,92.3555685 C3.25739778,91.3488981 1.65110193,89.7426022 0.644431496,87.7669002 C-0.361859244,85.7919435 -0.5,84.101181 -0.5,77 L-0.5,16 C-0.5,8.89881904 -0.361859244,7.20805653 0.644431496,5.23309975 C1.65110193,3.25739778 3.25739778,1.65110193 5.23309975,0.644431496 C7.20805653,-0.361859244 8.89881904,-0.5 16,-0.5 L291,-0.5 C298.101181,-0.5 299.791943,-0.361859244 301.7669,0.644431647 Z" id="矩形" stroke="#000000" fill="#000000"></path>
            <g id="编组" transform="translate(4, 5)">
                <circle id="椭圆形-2" fill="#F0F0F0" cx="43.1082075" cy="43.1829041" r="40"></circle>
                <circle id="椭圆形" fill="#F0F0F0" cx="42" cy="42" r="42"></circle>
                <path d="M79.4813072,56.0007013 C73.806174,71.1870044 59.1658422,82 42,82 C24.8341578,82 10.193826,71.1870044 4.51869283,56.0007013 Z" id="形状结合" fill="#FFB003"></path>
                <path d="M42,2 C59.1660656,2 73.806555,12.813277 79.4815287,27.9998915 L4.51847131,27.9998915 C10.193445,12.813277 24.8339344,2 42,2 Z" id="形状结合" fill="#1C1C1E"></path>
            </g>
            <g id="LINUX-DO" transform="translate(99.1, 44.16)" fill="#FFFFFF" fill-rule="nonzero">
                <polygon id="路径" points="0 0.603773585 0 31.3962264 21.375346 31.3962264 21.375346 27.083558 4.93932297 27.083558 4.93932297 0.603773585"></polygon>
                <polygon id="路径" points="25.2075793 0.603773585 25.2075793 31.3962264 30.1894826 31.3962264 30.1894826 0.603773585"></polygon>
                <polygon id="路径" points="36.1507345 0.603773585 36.1507345 31.3962264 41.1326379 31.3962264 41.1326379 8.88409704 41.3029593 8.88409704 56.5041516 31.3962264 61.3583138 31.3962264 61.3583138 0.603773585 56.3338301 0.603773585 56.3338301 22.8140162 56.1635086 22.8140162 41.1326379 0.603773585"></polygon>
                <path d="M67.3195657,0.603773585 L67.3195657,19.7088949 C67.3195657,23.7196765 68.4266553,26.7816712 70.6834149,28.9380054 C72.8124335,30.9649596 75.9208005,32 79.9659357,32 C83.9684905,32 87.0768576,30.9649596 89.2910368,28.8948787 C91.5052161,26.7816712 92.6123057,23.7196765 92.6123057,19.7088949 L92.6123057,0.603773585 L87.6304024,0.603773585 L87.6304024,19.7951482 C87.6304024,22.4690027 86.9916968,24.4097035 85.7994465,25.703504 C84.5646157,26.9541779 82.6059187,27.6010782 79.9659357,27.6010782 C77.2833724,27.6010782 75.3246753,26.9541779 74.132425,25.703504 C72.8975942,24.4097035 72.301469,22.4690027 72.301469,19.7951482 L72.301469,0.603773585 L67.3195657,0.603773585 Z" id="路径"></path>
                <polygon id="路径" points="96.4871194 0.603773585 106.663828 15.4824798 95.8058335 31.3962264 101.894826 31.3962264 109.729615 19.4932615 117.564403 31.3962264 123.653396 31.3962264 112.710241 15.4824798 122.97211 0.603773585 116.883117 0.603773585 109.729615 11.4716981 102.576112 0.603773585"></polygon>
                <path d="M141.026187,0.603773585 L141.026187,31.3962264 L152.139664,31.3962264 C157.078987,31.3962264 160.783479,30.0161725 163.338301,27.2560647 C165.765382,24.6253369 167.000213,20.8733154 167.000213,16 C167.000213,11.083558 165.765382,7.33153639 163.338301,4.74393531 C160.783479,1.98382749 157.078987,0.603773585 152.139664,0.603773585 L141.026187,0.603773585 Z M146.00809,4.91644205 L151.202895,4.91644205 C154.992548,4.91644205 157.760273,5.77897574 159.506068,7.54716981 C161.209283,9.2722372 162.06089,12.1185984 162.06089,16 C162.06089,19.7951482 161.209283,22.5983827 159.506068,24.4097035 C157.760273,26.1778976 154.992548,27.083558 151.202895,27.083558 L146.00809,27.083558 L146.00809,4.91644205 Z" id="形状"></path>
                <path d="M185.182031,0 C180.49819,0 176.836278,1.50943396 174.196296,4.61455526 C171.641473,7.54716981 170.406643,11.3423181 170.406643,16.0431267 C170.406643,20.7008086 171.641473,24.4959569 174.196296,27.4285714 C176.836278,30.4474394 180.49819,32 185.182031,32 C189.823291,32 193.485203,30.490566 196.167767,27.4716981 C198.722589,24.5822102 200,20.787062 200,16.0431267 C200,11.2991914 198.722589,7.46091644 196.167767,4.57142857 C193.485203,1.50943396 189.823291,0 185.182031,0 Z M185.182031,4.44204852 C188.332978,4.44204852 190.76006,5.43396226 192.463274,7.50404313 C194.123909,9.57412399 194.975516,12.4204852 194.975516,16.0431267 C194.975516,19.6657682 194.123909,22.4690027 192.463274,24.4959569 C190.76006,26.5229111 188.332978,27.5579515 185.182031,27.5579515 C182.031084,27.5579515 179.561422,26.4797844 177.858207,24.3665768 C176.197573,22.296496 175.388546,19.5363881 175.388546,16.0431267 C175.388546,12.5067385 176.197573,9.74663073 177.858207,7.67654987 C179.604003,5.52021563 182.031084,4.44204852 185.182031,4.44204852 Z" id="形状"></path>
            </g>
            <g id="SUPPORT-BY" transform="translate(99.84, 9.616)" fill="#F0F0F0" fill-rule="nonzero">
                <path d="M8.55284074,0 C6.29746835,0 4.45216367,0.476 2.98763615,1.456 C1.40594642,2.464 0.644392111,3.864 0.644392111,5.628 C0.644392111,7.392 1.43523697,8.736 3.04621725,9.66 C3.66131881,9.996 5.27229909,10.556 7.84986753,11.34 C10.163821,12.012 11.5111863,12.46 11.921254,12.656 C13.2100383,13.272 13.8837209,14.112 13.8837209,15.176 C13.8837209,16.016 13.4150721,16.66 12.5363556,17.164 C11.6576391,17.64 10.427436,17.892 8.90432735,17.892 C7.17618487,17.892 5.9166912,17.584 5.09655578,17.024 C4.18854872,16.38 3.63202826,15.288 3.39770386,13.776 L-2.9731697e-14,13.776 C0.146452752,16.324 1.11304092,18.172 2.87047395,19.348 C4.30571092,20.3 6.3267589,20.776 8.90432735,20.776 C11.5697674,20.776 13.6493965,20.244 15.1139241,19.236 C16.5784516,18.2 17.3107153,16.772 17.3107153,14.98 C17.3107153,13.132 16.4027083,11.704 14.5866941,10.668 C13.7665587,10.22 11.9505446,9.548 9.1093612,8.708 C7.17618487,8.12 5.9752723,7.7 5.53591404,7.476 C4.54003533,6.972 4.07138652,6.272 4.07138652,5.432 C4.07138652,4.48 4.48145422,3.78 5.36017074,3.36 C6.06314395,2.996 7.05902267,2.828 8.37709744,2.828 C9.90020606,2.828 11.0718281,3.08 11.8333824,3.64 C12.5949367,4.172 13.1514572,5.068 13.4443627,6.3 L16.8420665,6.3 C16.6370327,4.116 15.7876067,2.492 14.3230792,1.456 C12.9464233,0.476 11.013247,0 8.55284074,0 Z" id="路径"></path>
                <path d="M20.2397704,0.392 L20.2397704,12.796 C20.2397704,15.4 21.0013247,17.388 22.5537239,18.788 C24.0182514,20.104 26.1564616,20.776 28.9390639,20.776 C31.6923756,20.776 33.8305858,20.104 35.3536944,18.76 C36.8768031,17.388 37.6383574,15.4 37.6383574,12.796 L37.6383574,0.392 L34.211363,0.392 L34.211363,12.852 C34.211363,14.588 33.7720047,15.848 32.9518693,16.688 C32.1024433,17.5 30.755078,17.92 28.9390639,17.92 C27.0937592,17.92 25.7463939,17.5 24.9262585,16.688 C24.0768325,15.848 23.6667648,14.588 23.6667648,12.852 L23.6667648,0.392 L20.2397704,0.392 Z" id="路径"></path>
                <path d="M41.7390344,0.392 L41.7390344,20.384 L45.1660288,20.384 L45.1660288,12.712 L50.3504563,12.712 C55.4470121,12.712 57.99529,10.64 57.99529,6.524 C57.99529,2.436 55.4470121,0.392 50.4090374,0.392 L41.7390344,0.392 Z M45.1660288,3.192 L50.1454224,3.192 C51.6392405,3.192 52.7522814,3.444 53.4552546,3.976 C54.1582278,4.48 54.539005,5.32 54.539005,6.524 C54.539005,7.728 54.1875184,8.596 53.4845452,9.128 C52.781572,9.632 51.6685311,9.912 50.1454224,9.912 L45.1660288,9.912 L45.1660288,3.192 Z" id="形状"></path>
                <path d="M60.924345,0.392 L60.924345,20.384 L64.3513394,20.384 L64.3513394,12.712 L69.5357669,12.712 C74.6323226,12.712 77.1806005,10.64 77.1806005,6.524 C77.1806005,2.436 74.6323226,0.392 69.594348,0.392 L60.924345,0.392 Z M64.3513394,3.192 L69.330733,3.192 C70.8245511,3.192 71.937592,3.444 72.6405652,3.976 C73.3435384,4.48 73.7243156,5.32 73.7243156,6.524 C73.7243156,7.728 73.372829,8.596 72.6698558,9.128 C71.9668825,9.632 70.8538416,9.912 69.330733,9.912 L64.3513394,9.912 L64.3513394,3.192 Z" id="形状"></path>
                <path d="M89.3947601,0 C86.1727995,0 83.6538122,0.98 81.8377981,2.996 C80.080365,4.9 79.2309391,7.364 79.2309391,10.416 C79.2309391,13.44 80.080365,15.904 81.8377981,17.808 C83.6538122,19.768 86.1727995,20.776 89.3947601,20.776 C92.5874301,20.776 95.1064174,19.796 96.9517221,17.836 C98.7091551,15.96 99.5878717,13.496 99.5878717,10.416 C99.5878717,7.336 98.7091551,4.844 96.9517221,2.968 C95.1064174,0.98 92.5874301,0 89.3947601,0 Z M89.3947601,2.884 C91.5622608,2.884 93.2318222,3.528 94.4034442,4.872 C95.5457757,6.216 96.1315867,8.064 96.1315867,10.416 C96.1315867,12.768 95.5457757,14.588 94.4034442,15.904 C93.2318222,17.22 91.5622608,17.892 89.3947601,17.892 C87.2272593,17.892 85.5284074,17.192 84.3567854,15.82 C83.2144539,14.476 82.6579335,12.684 82.6579335,10.416 C82.6579335,8.12 83.2144539,6.328 84.3567854,4.984 C85.557698,3.584 87.2272593,2.884 89.3947601,2.884 Z" id="形状"></path>
                <path d="M102.809832,0.392 L102.809832,20.384 L106.236827,20.384 L106.236827,12.236 L111.655578,12.236 C112.8272,12.236 113.735208,12.46 114.350309,12.964 C114.93612,13.44 115.287607,14.224 115.404769,15.316 L115.668384,17.78 C115.785546,18.9 116.078452,19.768 116.576391,20.384 L120.296291,20.384 C119.593318,19.656 119.153959,18.676 119.036797,17.444 L118.685311,14.224 C118.450986,12.264 117.425817,11.116 115.609803,10.724 L115.609803,10.668 C116.722844,10.388 117.630851,9.8 118.275243,8.904 C118.861054,8.092 119.153959,7.168 119.153959,6.132 C119.153959,4.228 118.480277,2.772 117.191492,1.764 C115.961289,0.84 114.262437,0.392 112.124227,0.392 L102.809832,0.392 Z M106.236827,3.192 L111.655578,3.192 C113.061525,3.192 114.086694,3.416 114.731086,3.92 C115.375478,4.396 115.697674,5.18 115.697674,6.272 C115.697674,7.28 115.375478,8.064 114.731086,8.624 C114.028113,9.156 113.002944,9.436 111.655578,9.436 L106.236827,9.436 L106.236827,3.192 Z" id="形状"></path>
                <polygon id="路径" points="121.614366 0.392 121.614366 3.192 128.468354 3.192 128.468354 20.384 131.895349 20.384 131.895349 3.192 138.749338 3.192 138.749338 0.392"></polygon>
                <path d="M160.746541,0.392 L160.746541,20.384 L170.353842,20.384 C172.579923,20.384 174.337356,19.992 175.56756,19.208 C177.002797,18.256 177.73506,16.772 177.73506,14.756 C177.73506,13.412 177.383574,12.32 176.709891,11.536 C176.006918,10.724 174.981749,10.192 173.605093,9.94 C174.659553,9.548 175.450397,9.016 176.006918,8.288 C176.563438,7.504 176.856344,6.552 176.856344,5.432 C176.856344,3.92 176.299823,2.716 175.216073,1.82 C174.044451,0.868 172.40418,0.392 170.324551,0.392 L160.746541,0.392 Z M164.173535,3.08 L169.475125,3.08 C170.881072,3.08 171.87695,3.304 172.521342,3.752 C173.107153,4.172 173.429349,4.872 173.429349,5.824 C173.429349,6.86 173.107153,7.616 172.521342,8.092 C171.906241,8.54 170.881072,8.792 169.416544,8.792 L164.173535,8.792 L164.173535,3.08 Z M164.173535,11.48 L169.943774,11.48 C171.466883,11.48 172.579923,11.732 173.282897,12.236 C173.956579,12.74 174.308066,13.552 174.308066,14.7 C174.308066,15.82 173.839417,16.604 172.90212,17.108 C172.169856,17.5 171.144686,17.696 169.855902,17.696 L164.173535,17.696 L164.173535,11.48 Z" id="形状"></path>
                <polygon id="路径" points="179.053135 0.392 187.31307 12.432 187.31307 20.384 190.740065 20.384 190.740065 12.432 199 0.392 194.870032 0.392 189.041213 9.38 183.183103 0.392"></polygon>
            </g>
        </g>
    </g>
</svg>